<?xml version="1.0" standalone="no"?>
<!DOCTYPE svg PUBLIC "-//W3C//DTD SVG 20010904//EN"
 "http://www.w3.org/TR/2001/REC-SVG-20010904/DTD/svg10.dtd">
<svg version="1.0" xmlns="http://www.w3.org/2000/svg"
 width="128.000000pt" height="128.000000pt" viewBox="0 0 128.000000 128.000000"
 preserveAspectRatio="xMidYMid meet">
<metadata>
Created by potrace 1.16, written by Peter Selinger 2001-2019
</metadata>
<g transform="translate(0.000000,128.000000) scale(0.100000,-0.100000)"
fill="#000000" stroke="none">
<path d="M60 730 l0 -470 200 0 c110 0 200 -3 200 -6 0 -3 -8 -35 -17 -70
l-17 -64 -43 0 c-36 0 -43 -3 -43 -20 0 -20 7 -20 300 -20 293 0 300 0 300 20
0 17 -7 20 -43 20 l-43 0 -17 64 c-9 35 -17 67 -17 70 0 3 90 6 200 6 l200 0
0 470 0 470 -580 0 -580 0 0 -470z m1130 90 l0 -340 -170 0 -170 0 0 290 0
290 -105 0 -105 0 0 -290 c0 -251 -2 -290 -15 -290 -13 0 -15 31 -15 220 l0
220 -37 75 c-23 45 -44 75 -53 75 -9 0 -30 -30 -53 -75 l-37 -75 0 -220 0
-220 -170 0 -170 0 0 340 0 340 550 0 550 0 0 -340z m-370 -70 l0 -270 -75 0
-75 0 0 40 c0 33 3 40 20 40 13 0 20 7 20 20 0 13 -7 20 -20 20 -13 0 -20 7
-20 19 0 15 8 21 33 23 20 2 32 8 32 18 0 10 -12 16 -32 18 -25 2 -33 8 -33
23 0 12 7 19 20 19 13 0 20 7 20 20 0 13 -7 20 -20 20 -13 0 -20 7 -20 19 0
15 8 21 33 23 20 2 32 8 32 18 0 10 -12 16 -32 18 -25 2 -33 8 -33 23 0 12 7
19 20 19 12 0 20 7 20 16 0 9 -9 18 -20 21 -11 3 -20 14 -20 24 0 13 9 19 33
21 20 2 32 8 32 18 0 10 -12 16 -32 18 -63 6 -32 22 42 22 l75 0 0 -270z
m-250 -30 l0 -170 -50 0 -50 0 0 170 0 170 50 0 50 0 0 -170z m620 -345 l0
-75 -550 0 -550 0 0 75 0 75 550 0 550 0 0 -75z m-398 -180 c10 -33 18 -63 18
-67 0 -5 -76 -8 -170 -8 -93 0 -170 3 -170 8 0 7 26 94 35 120 3 9 36 12 137
10 l132 -3 18 -60z"/>
</g>
</svg>
