<?xml version="1.0" standalone="no"?>
<!DOCTYPE svg PUBLIC "-//W3C//DTD SVG 20010904//EN"
 "http://www.w3.org/TR/2001/REC-SVG-20010904/DTD/svg10.dtd">
<svg version="1.0" xmlns="http://www.w3.org/2000/svg"
 width="256.000000pt" height="256.000000pt" viewBox="0 0 256.000000 256.000000"
 preserveAspectRatio="xMidYMid meet">
<metadata>
Created by potrace 1.16, written by Peter Selinger 2001-2019
</metadata>
<g transform="translate(0.000000,256.000000) scale(0.100000,-0.100000)"
fill="#000000" stroke="none">
<path d="M1335 2523 c-122 -44 -223 -135 -278 -250 -30 -64 -32 -76 -35 -200
l-4 -133 -139 0 -139 0 0 58 c1 197 63 317 201 382 79 37 89 47 89 86 0 50
-36 71 -93 54 -115 -33 -225 -130 -280 -247 -30 -64 -32 -76 -35 -200 l-4
-133 -138 0 c-107 0 -140 -3 -149 -14 -14 -17 -301 -1718 -301 -1785 0 -37 5
-49 39 -82 35 -35 44 -39 89 -39 43 0 74 11 198 73 144 70 149 72 224 72 75 0
80 -2 224 -72 l147 -73 779 0 c858 0 810 -4 810 61 0 53 -300 1832 -312 1846
-8 10 -47 13 -148 13 l-138 0 -4 133 c-3 124 -5 136 -35 200 -45 95 -127 178
-222 225 -71 35 -81 37 -185 40 -86 2 -122 -2 -161 -15z m254 -128 c91 -32
174 -115 206 -206 9 -24 18 -89 22 -146 l6 -103 -141 0 -142 0 0 113 c0 165
-30 247 -89 247 -60 -1 -74 -39 -49 -134 10 -39 18 -104 18 -148 l0 -78 -142
0 -141 0 6 103 c4 57 13 122 22 146 31 89 114 173 202 206 51 18 170 19 222 0z
m-864 -597 c12 -53 274 -1643 271 -1645 -2 -2 -64 26 -138 62 -74 37 -153 69
-176 72 l-42 6 0 561 c0 424 -3 565 -12 574 -16 16 -80 16 -96 0 -9 -9 -12
-150 -12 -573 l0 -560 -52 -13 c-29 -6 -109 -39 -177 -72 -68 -33 -125 -59
-127 -57 -2 2 58 377 134 835 l137 832 142 0 c140 0 143 0 148 -22z m1538
-805 c75 -456 137 -834 137 -840 0 -10 -133 -13 -633 -13 l-632 0 -138 827
c-75 456 -137 834 -137 841 0 9 133 12 633 12 l632 0 138 -827z"/>
<path d="M1233 1414 c-62 -37 -93 -95 -93 -174 0 -123 77 -200 200 -200 123 0
200 77 200 200 0 123 -77 200 -201 200 -51 0 -73 -5 -106 -26z m157 -124 c11
-11 20 -33 20 -50 0 -17 -9 -39 -20 -50 -43 -43 -120 -11 -120 50 0 38 32 70
70 70 17 0 39 -9 50 -20z"/>
<path d="M1969 1423 c-9 -2 -179 -182 -378 -399 -326 -357 -361 -399 -361
-430 0 -40 36 -70 74 -60 15 4 123 114 278 283 139 153 301 331 361 395 93
102 107 122 107 152 0 25 -7 39 -22 50 -23 16 -30 17 -59 9z"/>
<path d="M1833 894 c-62 -37 -93 -95 -93 -174 0 -123 77 -200 200 -200 123 0
200 77 200 200 0 123 -77 200 -201 200 -51 0 -73 -5 -106 -26z m157 -124 c11
-11 20 -33 20 -50 0 -17 -9 -39 -20 -50 -43 -43 -120 -11 -120 50 0 38 32 70
70 70 17 0 39 -9 50 -20z"/>
</g>
</svg>
