<?xml version="1.0" standalone="no"?>
<!DOCTYPE svg PUBLIC "-//W3C//DTD SVG 20010904//EN"
 "http://www.w3.org/TR/2001/REC-SVG-20010904/DTD/svg10.dtd">
<svg version="1.0" xmlns="http://www.w3.org/2000/svg"
 width="100.000000pt" height="100.000000pt" viewBox="0 0 100.000000 100.000000"
 preserveAspectRatio="xMidYMid meet">
<metadata>
Created by potrace 1.16, written by Peter Selinger 2001-2019
</metadata>
<g transform="translate(0.000000,100.000000) scale(0.100000,-0.100000)"
fill="#000000" stroke="none">
<path d="M336 915 c-103 -42 -153 -106 -182 -232 -8 -38 -33 -97 -55 -135 -50
-85 -51 -121 -6 -148 17 -11 36 -21 41 -23 4 -1 14 -39 21 -84 20 -123 46
-153 134 -153 l51 0 0 -40 c0 -33 3 -40 20 -40 18 0 20 7 20 59 l0 59 -62 4
c-77 6 -102 30 -112 109 -14 115 -16 119 -57 140 -22 10 -39 22 -39 25 0 3 17
36 39 72 21 37 44 94 51 127 32 159 119 232 285 237 64 3 70 5 73 26 3 21 1
22 -80 22 -65 0 -96 -6 -142 -25z"/>
<path d="M633 914 c-60 -35 -93 -95 -93 -167 0 -71 12 -101 60 -154 40 -42 40
-43 40 -123 0 -68 3 -82 18 -87 9 -4 23 -15 30 -25 18 -25 86 -25 104 0 7 10
21 21 31 25 14 5 17 19 17 82 0 83 8 104 53 149 37 38 47 65 47 133 0 72 -34
133 -94 168 -61 35 -153 35 -213 -1z m185 -44 c46 -28 72 -76 72 -132 0 -42
-5 -53 -45 -98 -39 -44 -45 -57 -45 -95 0 -38 -3 -45 -20 -45 -18 0 -20 7 -20
81 0 79 1 83 35 121 20 21 33 43 30 48 -10 17 -37 11 -62 -12 l-23 -21 -23 21
c-25 23 -52 29 -62 12 -3 -5 10 -27 30 -48 34 -38 35 -42 35 -121 0 -74 -2
-81 -20 -81 -17 0 -20 7 -20 44 0 28 -6 48 -17 57 -9 8 -29 32 -45 53 -72 99
-2 236 122 236 27 0 58 -8 78 -20z"/>
</g>
</svg>
