<?xml version="1.0" standalone="no"?>
<!DOCTYPE svg PUBLIC "-//W3C//DTD SVG 20010904//EN"
 "http://www.w3.org/TR/2001/REC-SVG-20010904/DTD/svg10.dtd">
<svg version="1.0" xmlns="http://www.w3.org/2000/svg"
 width="100.000000pt" height="100.000000pt" viewBox="0 0 100.000000 100.000000"
 preserveAspectRatio="xMidYMid meet">
<metadata>
Created by potrace 1.16, written by Peter Selinger 2001-2019
</metadata>
<g transform="translate(0.000000,100.000000) scale(0.100000,-0.100000)"
fill="#000000" stroke="none">
<path d="M140 821 c-42 -22 -80 -74 -80 -110 0 -16 -12 -37 -30 -54 -43 -41
-43 -106 0 -149 29 -29 30 -32 30 -128 0 -96 1 -100 30 -133 24 -28 30 -44 30
-81 l0 -46 60 0 60 0 0 40 0 40 260 0 260 0 0 -40 0 -40 60 0 60 0 0 46 c0 37
6 53 30 81 29 33 30 37 30 134 0 99 0 101 30 126 26 21 30 32 30 73 0 41 -5
53 -30 77 -18 17 -30 38 -30 54 0 36 -38 88 -80 110 -32 17 -63 19 -360 19
-297 0 -328 -2 -360 -19z m655 -31 c66 -15 131 -110 76 -110 -11 0 -31 -14
-45 -31 -22 -26 -26 -40 -26 -99 l0 -69 -150 -3 c-82 -2 -217 -2 -300 0 l-150
3 0 73 c0 66 -3 76 -26 100 -15 14 -35 26 -45 26 -52 0 10 95 71 110 49 11
546 12 595 0z m-648 -190 c8 -16 13 -68 13 -140 0 -77 4 -120 12 -128 18 -18
641 -17 656 1 5 6 12 69 13 138 4 137 12 159 58 159 35 0 51 -17 51 -52 0 -18
-8 -33 -24 -43 -22 -15 -24 -23 -28 -119 -4 -120 -18 -149 -75 -165 -50 -14
-596 -14 -646 0 -57 16 -71 45 -75 165 -4 96 -6 104 -28 119 -27 17 -33 62
-12 83 21 21 71 10 85 -18z m313 -180 c11 -11 20 -29 20 -40 0 -19 -7 -20
-128 -20 -139 0 -152 5 -152 52 l0 28 120 0 c107 0 122 -2 140 -20z m340 -8
c0 -47 -13 -52 -152 -52 -121 0 -128 1 -128 20 0 11 9 29 20 40 18 18 33 20
140 20 l120 0 0 -28z"/>
</g>
</svg>
