<svg height="512" viewBox="0 0 60 57" width="512" xmlns="http://www.w3.org/2000/svg"><path d="M5 57h10a5.006 5.006 0 005-5V28a5.006 5.006 0 00-5-5H5a5.006 5.006 0 00-5 5v24a5.006 5.006 0 005 5zM2 28a3 3 0 013-3h10a3 3 0 013 3v24a3 3 0 01-3 3H5a3 3 0 01-3-3z"/><path d="M10 33a3 3 0 100-6 3 3 0 000 6zm0-4a1 1 0 110 2 1 1 0 010-2zM5 47a1 1 0 001-1v-6a1 1 0 00-2 0v6a1 1 0 001 1zm0 5a1 1 0 001-1v-1a1 1 0 00-2 0v1a1 1 0 001 1zm39-13h-1a1 1 0 000 2h1a1 1 0 000-2zm1-8h-1a1 1 0 000 2h1a1 1 0 000-2z"/><path d="M60 28a5.006 5.006 0 00-5-5H42.888a2.916 2.916 0 01-2.495-1.355 3.071 3.071 0 01-.206-2.943A20.507 20.507 0 0042 11c0-8.084-4.154-9.789-6.631-10.085A3 3 0 0032 3.9V9c0 2.409-2.616 6.963-7.177 12.5A8.008 8.008 0 0023 26.579V48a9.011 9.011 0 009 9h16a5 5 0 003.931-8.087 5 5 0 002.811-8.226 5 5 0 002-8A5.007 5.007 0 0060 28zm-5 3h-6a1 1 0 000 2h4a3 3 0 010 6h-5a1 1 0 000 2h3a3 3 0 010 6h-7a1 1 0 000 2h4a3 3 0 010 6H32a7.008 7.008 0 01-7-7V26.579a6 6 0 011.366-3.811C29.849 18.544 34 12.727 34 9V3.9a.987.987 0 01.335-.748 1 1 0 01.797-.248C38.316 3.282 40 6.083 40 11a18.658 18.658 0 01-1.635 6.877 5.06 5.06 0 00.347 4.852A4.947 4.947 0 0042.888 25H55a3 3 0 010 6z"/><path d="M28 46a1 1 0 00-1 1v2a1 1 0 002 0v-2a1 1 0 00-1-1zm0-12a1 1 0 00-1 1v8a1 1 0 002 0v-8a1 1 0 00-1-1z"/></svg>