<?xml version="1.0" standalone="no"?>
<!DOCTYPE svg PUBLIC "-//W3C//DTD SVG 20010904//EN"
 "http://www.w3.org/TR/2001/REC-SVG-20010904/DTD/svg10.dtd">
<svg version="1.0" xmlns="http://www.w3.org/2000/svg"
 width="512.000000pt" height="512.000000pt" viewBox="0 0 512.000000 512.000000"
 preserveAspectRatio="xMidYMid meet">
<metadata>
Created by potrace 1.16, written by Peter Selinger 2001-2019
</metadata>
<g transform="translate(0.000000,512.000000) scale(0.100000,-0.100000)"
fill="#000000" stroke="none">
<path d="M3728 4830 c-20 -11 -48 -35 -63 -54 -14 -18 -282 -550 -596 -1181
-544 -1096 -570 -1150 -571 -1204 -2 -129 98 -225 232 -224 76 0 133 24 175
75 15 18 99 177 187 353 153 307 159 321 148 353 -7 18 -20 37 -30 42 -28 15
-77 12 -95 -6 -9 -9 -86 -155 -170 -325 -149 -296 -176 -339 -216 -339 -27 0
-69 39 -69 66 0 13 255 535 568 1159 608 1218 576 1161 641 1139 14 -5 32 -22
41 -36 15 -27 9 -40 -339 -736 -372 -744 -367 -734 -325 -776 8 -9 26 -19 39
-22 60 -15 57 -19 433 730 318 634 356 716 360 766 7 94 -42 174 -133 216 -65
31 -163 32 -217 4z"/>
<path d="M2350 4733 c-178 -10 -324 -84 -400 -203 -63 -98 -72 -147 -77 -430
-9 -424 13 -533 128 -655 83 -88 193 -131 359 -141 247 -15 441 78 520 249 45
96 52 172 47 515 -4 329 -8 356 -61 446 -33 56 -112 129 -175 160 -83 43 -216
65 -341 59z m241 -191 c59 -26 115 -75 138 -121 37 -73 43 -134 39 -436 -3
-288 -3 -290 -29 -345 -45 -96 -108 -143 -227 -169 -100 -21 -239 -8 -313 29
-99 51 -144 123 -161 258 -15 128 -6 554 15 610 35 97 103 160 206 189 72 20
274 11 332 -15z"/>
<path d="M2320 4461 c-53 -17 -91 -43 -118 -83 l-27 -41 -3 -296 c-2 -195 0
-309 8 -333 14 -50 56 -97 105 -119 47 -22 157 -25 219 -7 52 16 108 72 124
124 15 53 17 562 1 617 -16 58 -72 114 -132 132 -53 16 -135 18 -177 6z m138
-167 c22 -15 22 -18 22 -274 0 -295 1 -290 -79 -290 -26 0 -52 5 -59 12 -9 9
-12 84 -12 274 0 294 0 294 68 294 21 0 48 -7 60 -16z"/>
<path d="M4075 3689 c-190 -17 -331 -103 -396 -242 -46 -100 -51 -149 -47
-506 4 -303 6 -330 25 -383 59 -158 178 -251 365 -285 93 -16 240 -12 323 11
164 44 279 156 320 311 21 81 22 683 1 762 -64 239 -280 360 -591 332z m290
-198 c71 -35 119 -92 141 -168 12 -42 15 -108 12 -365 l-3 -313 -30 -60 c-57
-114 -155 -161 -335 -159 -157 1 -249 40 -309 131 -48 72 -53 118 -49 448 3
291 4 302 27 352 27 61 84 117 147 144 100 45 297 39 399 -10z"/>
<path d="M4068 3421 c-52 -17 -94 -50 -118 -93 l-25 -43 0 -305 c0 -298 1
-306 23 -347 35 -66 87 -95 180 -101 129 -7 205 27 243 113 17 36 19 70 19
336 0 291 0 297 -23 340 -36 68 -98 102 -195 105 -42 2 -89 -1 -104 -5z m146
-167 c14 -13 16 -53 16 -279 0 -298 4 -285 -79 -285 -71 0 -71 -1 -71 290 0
256 0 259 22 274 29 21 92 20 112 0z"/>
<path d="M125 2501 c-22 -10 -52 -31 -67 -47 -56 -60 -58 -73 -58 -443 l0
-340 26 -20 c35 -28 67 -26 101 3 l28 24 3 323 c2 281 5 326 19 341 15 17 42
18 345 18 315 0 329 -1 348 -20 20 -20 20 -33 20 -873 0 -815 -1 -855 -18
-870 -17 -15 -55 -17 -348 -17 -190 0 -335 4 -344 10 -13 8 -16 70 -20 426
l-5 416 -28 24 c-35 30 -66 31 -101 3 l-27 -21 3 -441 3 -442 27 -38 c14 -22
43 -51 65 -65 l38 -27 365 -3 c246 -2 377 0 403 8 49 14 106 65 128 115 16 34
19 67 19 211 l0 171 138 -23 c185 -32 312 -65 419 -108 88 -35 633 -301 859
-420 147 -77 233 -99 384 -99 180 1 205 10 690 255 239 121 445 231 458 245
39 42 21 105 -35 124 -32 10 -46 4 -366 -156 -183 -92 -372 -189 -422 -215
-126 -67 -210 -91 -320 -92 -120 -1 -191 16 -299 74 -163 87 -799 399 -876
430 -142 57 -240 81 -537 134 l-93 16 0 464 0 464 563 0 c373 0 575 -4 602
-11 34 -9 90 -61 351 -322 285 -286 312 -316 322 -358 18 -73 -9 -142 -71
-179 -36 -22 -115 -27 -150 -9 -12 6 -144 132 -292 280 -257 255 -273 269
-308 269 -56 0 -83 -33 -77 -95 1 -11 121 -140 278 -297 325 -327 335 -333
481 -326 71 3 95 9 140 33 67 37 123 100 147 167 l19 51 870 218 c479 120 886
219 905 219 103 0 166 -123 107 -211 -19 -29 -83 -65 -397 -226 -206 -105
-380 -199 -387 -209 -35 -48 1 -124 58 -124 47 0 781 372 826 419 57 59 76
105 81 201 4 81 2 88 -30 150 -54 105 -156 167 -268 163 -25 0 -431 -98 -902
-217 -471 -119 -861 -216 -865 -216 -4 0 -20 24 -36 53 -20 39 -108 134 -340
365 -266 265 -321 315 -372 339 l-60 28 -597 3 -598 3 0 82 c-1 127 -35 191
-125 233 -50 24 -53 24 -405 24 -324 0 -358 -2 -395 -19z"/>
</g>
</svg>
