<?xml version="1.0" standalone="no"?>
<!DOCTYPE svg PUBLIC "-//W3C//DTD SVG 20010904//EN"
 "http://www.w3.org/TR/2001/REC-SVG-20010904/DTD/svg10.dtd">
<svg version="1.0" xmlns="http://www.w3.org/2000/svg"
 width="512.000000pt" height="512.000000pt" viewBox="0 0 512.000000 512.000000"
 preserveAspectRatio="xMidYMid meet">
<metadata>
Created by potrace 1.16, written by Peter Selinger 2001-2019
</metadata>
<g transform="translate(0.000000,512.000000) scale(0.100000,-0.100000)"
fill="#000000" stroke="none">
<path d="M775 5101 c-49 -23 -99 -74 -119 -123 -14 -33 -16 -290 -16 -2418 0
-2128 2 -2385 16 -2418 20 -49 70 -100 119 -123 38 -18 108 -19 1848 -19 1161
0 1815 4 1827 10 10 5 23 24 29 41 16 45 16 4973 0 5018 -6 17 -19 36 -29 41
-12 6 -666 10 -1827 10 -1740 0 -1810 -1 -1848 -19z m3545 -2381 l0 -2240
-1760 -2 -1760 -3 0 2196 c0 1612 3 2205 11 2229 22 63 -91 59 1792 60 l1717
0 0 -2240z m-320 -2480 l0 -80 -1555 0 c-1693 0 -1616 -3 -1631 54 -3 14 -3
38 0 52 14 56 -62 53 1629 54 l1557 0 0 -80z m320 0 l0 -80 -80 0 -80 0 0 80
0 80 80 0 80 0 0 -80z"/>
<path d="M1655 4461 c-85 -39 -137 -124 -137 -221 0 -96 49 -176 137 -223 39
-21 52 -22 435 -25 261 -2 405 0 423 7 32 13 57 63 57 116 l0 35 217 0 217 0
77 -75 c102 -100 99 -100 328 14 158 79 180 94 189 121 14 40 5 87 -21 105
-10 7 -93 48 -182 89 -214 100 -213 100 -319 -4 l-82 -80 -212 0 -212 0 0 39
c0 50 -18 99 -40 111 -11 6 -179 10 -427 10 -376 0 -411 -2 -448 -19z m745
-221 l0 -81 -334 3 c-312 3 -335 4 -355 22 -21 19 -27 58 -15 91 16 40 55 44
387 45 l317 0 0 -80z"/>
<path d="M1848 3520 c-168 -29 -312 -182 -326 -346 l-4 -61 -39 7 c-77 14
-160 -13 -216 -72 -61 -63 -63 -76 -63 -410 0 -341 3 -353 75 -417 54 -47 94
-61 175 -61 l70 0 0 -100 c0 -145 -9 -140 234 -140 107 0 202 3 211 6 30 12
45 60 45 149 l0 85 555 0 555 0 0 -98 c0 -145 -6 -142 239 -142 111 0 200 4
211 10 26 14 40 70 40 158 l0 72 68 0 c82 0 134 22 183 77 61 68 64 86 64 403
0 327 -4 349 -79 418 -51 47 -96 63 -179 65 l-62 2 -7 60 c-10 80 -51 159
-115 223 -63 63 -134 98 -228 112 -83 11 -1336 12 -1407 0z m1447 -186 c51
-28 91 -68 118 -119 19 -36 21 -60 25 -262 l4 -223 -876 0 -876 0 0 223 c0
194 3 227 19 262 30 67 93 118 166 136 17 4 334 7 705 6 670 -2 675 -2 715
-23z m-1800 -405 c19 -19 20 -35 23 -309 l3 -290 -55 0 c-43 0 -61 5 -76 20
-19 19 -20 33 -20 288 0 280 1 286 45 310 24 14 53 6 80 -19z m2210 21 c48
-18 55 -56 55 -308 0 -295 -6 -312 -104 -312 l-46 0 0 286 c0 183 4 292 11
305 8 16 25 28 56 38 1 1 13 -3 28 -9z m-265 -505 l0 -115 -875 0 -875 0 0
115 0 115 875 0 875 0 0 -115z"/>
<path d="M1540 1578 c-28 -31 -27 -88 3 -116 l23 -22 997 0 c984 0 997 0 1017
20 13 13 20 33 20 60 0 27 -7 47 -20 60 -20 20 -33 20 -1020 20 l-999 0 -21
-22z"/>
<path d="M1542 1337 c-29 -30 -29 -86 -2 -115 l21 -22 999 0 c987 0 1000 0
1020 20 13 13 20 33 20 60 0 27 -7 47 -20 60 -20 20 -33 20 -1018 20 l-999 0
-21 -23z"/>
<path d="M2100 1100 c-22 -22 -27 -78 -10 -110 20 -36 61 -40 470 -40 409 0
450 4 470 40 17 32 12 88 -10 110 -19 19 -33 20 -460 20 -427 0 -441 -1 -460
-20z"/>
</g>
</svg>
