<?xml version="1.0" standalone="no"?>
<!DOCTYPE svg PUBLIC "-//W3C//DTD SVG 20010904//EN"
 "http://www.w3.org/TR/2001/REC-SVG-20010904/DTD/svg10.dtd">
<svg version="1.0" xmlns="http://www.w3.org/2000/svg"
 width="512.000000pt" height="512.000000pt" viewBox="0 0 512.000000 512.000000"
 preserveAspectRatio="xMidYMid meet">
<metadata>
Created by potrace 1.16, written by Peter Selinger 2001-2019
</metadata>
<g transform="translate(0.000000,512.000000) scale(0.100000,-0.100000)"
fill="#000000" stroke="none">
<path d="M72 4960 c-18 -11 -41 -34 -52 -52 -20 -33 -20 -56 -20 -2348 0
-2292 0 -2315 20 -2348 11 -18 34 -41 52 -52 33 -20 54 -20 1714 -20 l1681 0
33 23 c59 39 74 78 79 202 3 104 5 112 31 142 16 17 31 41 35 52 5 16 15 21
43 21 49 0 119 36 145 75 20 32 23 33 77 28 44 -4 64 0 100 19 47 24 88 75 97
120 4 22 14 30 44 38 111 30 164 163 106 265 l-23 40 49 63 c64 86 96 150 188
391 l10 24 37 -36 c55 -54 80 -50 156 23 62 60 63 60 81 40 10 -12 31 -20 48
-20 26 0 53 22 174 142 131 130 143 145 143 178 0 33 -27 62 -493 528 -430
430 -496 492 -522 492 -26 0 -53 -23 -178 -148 -96 -96 -147 -155 -147 -168 0
-12 10 -34 21 -48 l22 -28 -62 -62 c-77 -78 -78 -95 -11 -161 28 -27 50 -52
50 -56 0 -12 -86 -58 -155 -84 l-65 -25 -2 1328 c-3 1318 -3 1327 -24 1362
-11 19 -35 45 -54 57 l-33 23 -1681 0 c-1660 0 -1681 0 -1714 -20z m3376
-1443 c2 -1135 0 -1338 -12 -1343 -8 -3 -33 13 -57 35 -70 65 -114 81 -222 81
-88 0 -157 13 -157 29 0 4 22 29 50 56 67 66 66 83 -11 161 l-62 62 22 28 c11
14 21 36 21 47 0 13 -54 75 -147 169 -125 126 -152 148 -177 148 -27 0 -91
-60 -523 -492 -466 -466 -493 -495 -493 -528 0 -33 12 -48 143 -178 121 -120
148 -142 174 -142 17 0 38 8 48 20 18 20 19 20 81 -40 76 -73 101 -77 155 -24
l37 36 35 -151 c34 -142 64 -220 109 -284 17 -24 18 -32 8 -63 -7 -20 -10 -60
-8 -89 6 -71 42 -118 107 -142 41 -14 50 -22 55 -47 10 -49 52 -94 106 -113
42 -15 49 -22 55 -50 8 -43 65 -99 114 -113 34 -9 40 -15 45 -45 9 -47 65
-101 118 -115 73 -20 139 3 207 74 l34 35 44 -40 c24 -22 57 -42 73 -46 l31
-6 -3 -91 -3 -91 -1660 0 -1660 0 -3 2285 c-1 1257 0 2291 3 2298 3 10 341 12
1662 10 l1658 -3 3 -1338z m-660 -760 l82 -82 -438 -438 -437 -437 -85 85 -85
85 435 435 c239 239 437 435 440 435 3 0 42 -37 88 -83z m1752 -352 l435 -435
-85 -85 -85 -85 -437 437 -438 438 82 82 c46 46 85 83 88 83 3 0 201 -196 440
-435z m-1617 77 l27 -28 -368 -367 -368 -368 -29 31 -29 31 364 364 c201 201
367 365 371 365 3 0 17 -13 32 -28z m1357 -337 l364 -364 -29 -31 -29 -31
-368 368 -368 367 27 28 c15 15 29 28 32 28 4 0 170 -164 371 -365z m45 -559
c-77 -188 -104 -241 -147 -288 l-33 -38 -142 163 c-209 239 -207 237 -237 237
-15 0 -49 -15 -76 -34 -28 -19 -63 -37 -79 -41 -37 -8 -93 20 -140 69 -52 54
-82 50 -152 -20 -49 -49 -59 -55 -77 -45 -51 27 -102 3 -102 -48 0 -31 17 -50
69 -76 51 -26 122 -95 142 -140 35 -76 15 -190 -31 -178 -12 3 -62 50 -112
104 -55 59 -129 125 -185 165 -51 36 -93 71 -94 78 -6 56 27 140 97 252 135
216 163 232 583 349 94 26 212 79 260 116 l25 20 247 -247 246 -246 -62 -152z
m-1369 612 c37 -16 77 -23 164 -27 81 -5 122 -11 138 -22 23 -16 22 -17 -50
-51 -91 -44 -137 -81 -202 -162 -121 -152 -198 -317 -199 -427 -1 -86 9 -101
126 -182 59 -41 127 -102 185 -165 125 -135 190 -164 275 -123 63 30 90 83 95
186 5 98 -19 170 -78 238 -38 43 -39 45 -21 61 17 16 21 14 70 -18 81 -55 162
-59 253 -13 l44 22 194 -221 c107 -121 199 -233 205 -248 8 -25 6 -31 -18 -52
-16 -13 -33 -24 -39 -24 -6 0 -70 58 -142 129 -72 71 -141 132 -154 136 -36
10 -72 -18 -72 -57 0 -28 18 -50 130 -163 84 -85 130 -139 130 -153 0 -22 -43
-62 -68 -62 -8 0 -77 61 -152 135 -114 113 -141 135 -166 135 -38 0 -54 -16
-54 -54 0 -24 18 -48 95 -127 79 -79 95 -102 95 -127 0 -31 -29 -62 -58 -62
-8 0 -44 29 -81 65 -72 70 -106 81 -143 48 -30 -27 -22 -59 32 -119 40 -43 50
-60 44 -77 -16 -54 -67 -61 -119 -16 -28 25 -33 34 -25 49 16 30 12 112 -8
150 -19 38 -72 78 -114 87 -20 4 -28 13 -32 39 -10 48 -50 91 -107 111 -37 13
-49 23 -49 38 0 50 -67 116 -132 130 -21 5 -28 13 -28 29 0 60 -94 136 -167
136 -47 0 -102 -25 -144 -66 l-36 -36 -20 29 c-32 47 -51 102 -82 233 -17 69
-36 143 -44 165 l-15 40 241 243 c133 133 245 242 248 242 4 0 28 -10 55 -22z
m-178 -964 c39 -27 28 -55 -57 -137 -43 -42 -83 -77 -88 -77 -5 0 -19 7 -31
16 -39 27 -28 55 57 137 43 42 83 77 88 77 5 0 19 -7 31 -16z m164 -161 c33
-30 22 -56 -61 -136 -43 -42 -83 -77 -88 -77 -20 0 -53 33 -53 54 0 24 147
176 171 176 7 0 21 -7 31 -17z m160 -160 c33 -30 22 -56 -61 -136 -43 -42 -83
-77 -88 -77 -20 0 -53 33 -53 53 0 24 145 177 169 177 8 0 23 -7 33 -17z m160
-160 c33 -30 22 -56 -61 -136 -43 -42 -83 -77 -88 -77 -20 0 -53 33 -53 53 0
24 145 177 169 177 8 0 23 -7 33 -17z"/>
<path d="M407 4552 c-15 -17 -17 -55 -17 -339 0 -297 1 -321 18 -336 17 -16
127 -17 1379 -17 1305 0 1361 1 1376 18 15 17 17 55 17 340 0 278 -2 323 -16
336 -14 14 -153 16 -1378 16 -1308 0 -1364 -1 -1379 -18z m2653 -337 l0 -235
-1275 0 -1275 0 0 235 0 235 1275 0 1275 0 0 -235z"/>
<path d="M1016 3618 c-21 -30 -20 -54 4 -78 20 -20 33 -20 765 -20 732 0 745
0 765 20 25 25 26 62 2 83 -17 16 -85 17 -770 17 l-751 0 -15 -22z"/>
<path d="M617 3322 c-23 -25 -21 -58 3 -82 20 -20 33 -20 1168 -20 1100 0
1150 1 1165 18 22 24 21 65 -1 85 -17 16 -113 17 -1169 17 -1101 0 -1151 -1
-1166 -18z"/>
<path d="M412 2814 c-26 -18 -30 -65 -6 -88 14 -14 100 -16 798 -16 595 0 785
3 794 12 7 7 12 27 12 44 0 67 39 64 -810 64 -677 0 -768 -2 -788 -16z"/>
<path d="M412 2464 c-26 -18 -30 -65 -6 -88 14 -14 87 -16 658 -16 486 0 645
3 654 12 18 18 14 73 -6 91 -17 15 -76 17 -648 17 -554 0 -632 -2 -652 -16z"/>
<path d="M407 2112 c-22 -24 -21 -65 1 -85 17 -15 68 -17 525 -17 l506 0 15
22 c21 30 20 54 -4 78 -19 19 -33 20 -523 20 -475 0 -505 -1 -520 -18z"/>
<path d="M407 1762 c-22 -24 -21 -65 1 -85 17 -15 77 -17 655 -17 699 0 667
-3 667 60 0 63 32 60 -669 60 -605 0 -639 -1 -654 -18z"/>
<path d="M407 1412 c-24 -26 -21 -68 5 -86 20 -14 112 -16 794 -16 734 0 772
1 787 18 21 23 22 66 1 86 -14 14 -99 16 -793 16 -741 0 -779 -1 -794 -18z"/>
<path d="M1059 1116 c-53 -14 -94 -41 -138 -91 l-31 -36 -31 36 c-62 70 -135
85 -200 41 -40 -27 -96 -125 -125 -218 -21 -68 -11 -103 32 -114 47 -12 59 1
101 114 15 40 37 84 48 99 l21 26 23 -24 c13 -13 33 -45 46 -70 32 -62 51 -79
86 -79 23 0 34 8 55 43 86 139 117 163 198 153 38 -4 58 -2 74 10 22 15 29 57
14 80 -21 33 -107 48 -173 30z"/>
<path d="M407 652 c-22 -24 -21 -65 1 -85 17 -15 64 -17 475 -17 500 0 487 -2
487 59 0 62 9 61 -492 61 -428 0 -456 -1 -471 -18z"/>
</g>
</svg>
