<?xml version="1.0" standalone="no"?>
<!DOCTYPE svg PUBLIC "-//W3C//DTD SVG 20010904//EN"
 "http://www.w3.org/TR/2001/REC-SVG-20010904/DTD/svg10.dtd">
<svg version="1.0" xmlns="http://www.w3.org/2000/svg"
 width="100.000000pt" height="100.000000pt" viewBox="0 0 100.000000 100.000000"
 preserveAspectRatio="xMidYMid meet">
<metadata>
Created by potrace 1.16, written by Peter Selinger 2001-2019
</metadata>
<g transform="translate(0.000000,100.000000) scale(0.100000,-0.100000)"
fill="#000000" stroke="none">
<path d="M420 989 c-41 -5 -92 -22 -140 -45 -365 -181 -365 -708 0 -887 82
-41 199 -62 280 -51 185 24 347 151 407 318 44 124 36 276 -22 393 -98 199
-296 301 -525 272z m230 -188 l0 -58 -46 -6 c-61 -6 -76 -24 -82 -91 l-4 -56
62 0 63 0 -7 -46 c-3 -26 -6 -55 -6 -65 0 -16 -8 -19 -55 -19 l-55 0 0 -165 0
-165 -65 0 -65 0 0 165 0 165 -55 0 -55 0 0 65 0 65 54 0 54 0 3 84 c4 93 18
122 79 164 27 18 47 22 106 22 l74 0 0 -59z"/>
</g>
</svg>
