<?xml version="1.0" standalone="no"?>
<!DOCTYPE svg PUBLIC "-//W3C//DTD SVG 20010904//EN"
 "http://www.w3.org/TR/2001/REC-SVG-20010904/DTD/svg10.dtd">
<svg version="1.0" xmlns="http://www.w3.org/2000/svg"
 width="512.000000pt" height="512.000000pt" viewBox="0 0 512.000000 512.000000"
 preserveAspectRatio="xMidYMid meet">
<metadata>
Created by potrace 1.16, written by Peter Selinger 2001-2019
</metadata>
<g transform="translate(0.000000,512.000000) scale(0.100000,-0.100000)"
fill="#000000" stroke="none">
<path d="M1758 4879 c-133 -18 -252 -81 -348 -186 -49 -53 -63 -62 -111 -73
-124 -28 -237 -1 -328 77 -68 58 -131 44 -131 -28 0 -31 140 -374 178 -433 14
-23 38 -56 53 -74 16 -18 29 -36 29 -40 0 -4 -38 -14 -85 -23 -104 -21 -171
-52 -190 -90 -18 -33 -21 -193 -5 -235 6 -14 24 -39 42 -55 17 -16 29 -31 27
-33 -2 -1 -34 -19 -71 -39 -143 -79 -324 -233 -438 -372 -177 -217 -297 -471
-357 -755 -14 -67 -18 -132 -18 -305 0 -194 3 -232 23 -323 47 -211 124 -392
242 -571 l61 -94 -25 -56 c-51 -114 -62 -245 -25 -310 33 -58 64 -75 145 -79
135 -7 268 41 374 136 103 91 119 96 327 100 l182 4 -20 -41 c-13 -27 -19 -61
-19 -106 0 -70 16 -120 55 -171 l24 -32 -21 -18 c-38 -34 -58 -93 -58 -175 0
-63 5 -84 28 -130 34 -67 93 -114 165 -129 37 -7 276 -10 778 -8 721 3 724 3
765 25 99 53 139 123 139 243 0 87 -20 147 -59 179 -13 11 -13 16 6 45 21 32
22 32 103 32 79 0 83 -1 103 -29 l21 -30 -29 -36 c-39 -51 -53 -103 -48 -180
8 -110 64 -189 159 -225 40 -15 116 -16 799 -14 836 3 776 -2 849 70 52 50 71
101 71 188 0 76 -21 142 -57 182 -15 17 -15 19 0 36 34 37 57 106 57 173 0 73
-16 120 -56 168 l-27 32 26 27 c39 41 57 94 57 170 0 117 -64 211 -169 247
-38 13 -122 15 -538 15 l-493 0 0 28 c0 52 -30 146 -75 238 -75 154 -226 293
-377 349 -36 13 -48 23 -48 39 -1 83 -23 281 -40 365 -96 461 -385 863 -793
1103 l-68 39 26 21 c45 35 55 68 55 181 0 90 -3 108 -20 130 -26 32 -103 62
-220 83 l-90 17 34 37 c45 50 98 142 196 341 72 146 80 167 71 192 -15 40 -50
50 -106 30 -78 -26 -130 -15 -289 66 -178 89 -272 110 -418 90z m197 -143 c61
-16 97 -32 200 -91 49 -27 108 -51 153 -61 l72 -16 -72 -141 c-103 -201 -191
-285 -346 -331 -50 -14 -53 -14 -48 2 19 65 96 510 92 528 -11 43 -148 103
-240 105 -35 1 -38 2 -16 9 40 13 151 11 205 -4z m-119 -156 l30 -11 -43 -227
c-23 -125 -45 -238 -48 -251 l-6 -24 -147 6 c-205 9 -293 37 -395 127 -62 55
-99 110 -142 211 -34 79 -35 81 -13 75 13 -3 57 -9 98 -12 91 -7 177 11 293
62 45 19 106 42 137 50 61 15 186 12 236 -6z m-489 -607 c78 -28 79 -28 343
-28 l265 0 79 29 c85 31 90 31 271 4 73 -11 77 -12 45 -19 -265 -59 -1027 -59
-1290 0 -31 7 -25 9 55 20 50 7 97 14 105 15 34 8 53 5 127 -21z m-252 -157
c154 -25 336 -36 610 -36 325 0 533 16 735 56 32 7 34 6 21 -10 -54 -65 -297
-120 -595 -135 -362 -18 -757 31 -883 109 -41 25 -44 45 -5 36 15 -3 68 -12
117 -20z m121 -227 c213 -38 574 -48 831 -23 l62 7 -44 -89 c-52 -104 -98
-255 -89 -290 7 -29 32 -44 72 -44 39 0 49 14 73 101 21 76 94 236 127 278
l19 24 48 -87 c63 -116 119 -256 161 -400 19 -66 40 -126 46 -133 7 -9 27 -13
52 -11 33 2 43 8 53 29 11 23 9 41 -12 124 -33 128 -85 265 -149 395 -28 57
-53 109 -55 114 -2 5 27 -8 65 -28 468 -256 768 -728 800 -1258 l7 -103 -85 0
c-80 0 -85 1 -107 28 l-23 28 20 22 c64 68 81 200 38 293 -27 58 -94 120 -146
135 -23 6 -294 9 -791 7 l-756 -3 -49 -30 c-30 -19 -60 -49 -79 -79 -28 -46
-30 -56 -30 -146 0 -92 2 -100 32 -148 l32 -52 -32 -51 c-26 -43 -32 -64 -35
-125 -5 -85 9 -133 50 -180 l31 -35 -21 -22 c-38 -40 -62 -108 -62 -175 0 -67
16 -117 55 -168 21 -27 22 -34 10 -44 -8 -6 -25 -35 -40 -63 -19 -39 -25 -66
-25 -118 0 -37 4 -79 9 -93 l10 -24 -192 -4 c-184 -3 -194 -4 -250 -30 -31
-15 -87 -52 -123 -83 -74 -63 -126 -92 -199 -111 -66 -18 -110 -17 -125 1 -19
22 2 129 41 211 34 73 37 130 10 165 -90 117 -189 298 -240 442 -215 610 19
1321 564 1712 120 86 281 168 315 159 14 -3 71 -14 126 -25z m1727 -1023 c95
-39 95 -193 0 -232 -26 -11 -165 -14 -738 -14 -779 0 -745 -3 -785 63 -38 61
-18 140 43 177 31 19 55 20 740 20 575 0 714 -3 740 -14z m-30 -387 c20 -5 37
-13 37 -17 0 -5 -17 -14 -37 -21 -64 -23 -153 -82 -223 -148 l-67 -63 -565 0
-565 0 -34 23 c-39 26 -66 89 -56 129 10 39 54 87 90 97 46 13 1372 14 1420 0z
m422 -134 c101 -25 202 -83 274 -155 82 -81 128 -158 158 -262 108 -375 -180
-758 -572 -758 -271 0 -518 198 -581 466 -21 90 -14 225 15 317 59 181 230
341 421 391 73 19 211 20 285 1z m-823 -317 c-14 -35 -30 -93 -36 -130 l-10
-68 -476 0 c-432 0 -478 2 -510 18 -41 20 -80 74 -80 111 0 40 33 92 71 113
31 17 69 18 550 18 l517 0 -26 -62z m-36 -395 c6 -38 22 -96 36 -130 l26 -63
-523 0 -522 0 -34 23 c-39 26 -66 89 -56 129 10 39 54 87 90 97 18 5 244 10
502 10 l471 1 10 -67z m2416 57 c40 -12 84 -57 95 -98 10 -40 -17 -103 -56
-129 l-34 -23 -522 0 -523 0 26 63 c14 34 30 92 36 130 l10 67 466 0 c286 0
479 -4 502 -10z m-2195 -460 c54 -51 102 -84 170 -117 l95 -48 -28 -12 c-45
-19 -1402 -18 -1448 1 -101 42 -110 177 -16 228 33 17 70 18 593 18 l559 0 75
-70z m2229 51 c72 -44 82 -141 19 -198 l-35 -33 -727 0 c-401 0 -734 4 -740 8
-9 5 21 25 83 57 67 34 116 68 167 116 l72 68 565 1 c536 0 567 -1 596 -19z
m-1956 -406 c63 -60 59 -157 -9 -202 l-34 -23 -724 0 -723 0 -36 33 c-47 43
-57 113 -24 165 40 64 13 62 802 59 l717 -2 31 -30z m1981 -2 c63 -63 44 -175
-36 -209 -29 -12 -148 -14 -734 -14 -412 0 -710 4 -724 9 -93 36 -110 173 -28
228 l35 23 728 -2 728 -3 31 -32z"/>
<path d="M3170 2013 c-26 -9 -40 -35 -40 -73 0 -32 -4 -37 -36 -49 -83 -30
-142 -113 -151 -213 -7 -72 15 -134 66 -191 43 -48 94 -72 180 -86 73 -12 106
-36 121 -90 21 -78 -55 -162 -135 -147 -44 9 -91 63 -100 115 -11 67 -73 93
-116 50 -18 -18 -21 -29 -16 -76 9 -91 72 -176 152 -204 32 -12 35 -16 35 -54
0 -50 23 -75 68 -75 42 0 62 23 62 74 0 39 2 43 36 55 83 30 142 113 151 211
13 141 -83 257 -227 276 -98 12 -140 48 -140 117 0 50 25 93 66 112 41 19 58
19 100 -1 38 -18 59 -50 69 -107 12 -63 74 -88 116 -46 18 18 21 30 16 74 -3
29 -15 71 -26 93 -25 48 -93 109 -132 117 -26 6 -29 11 -29 44 0 20 -6 45 -12
54 -14 18 -55 29 -78 20z"/>
</g>
</svg>
