<?xml version="1.0" standalone="no"?>
<!DOCTYPE svg PUBLIC "-//W3C//DTD SVG 20010904//EN"
 "http://www.w3.org/TR/2001/REC-SVG-20010904/DTD/svg10.dtd">
<svg version="1.0" xmlns="http://www.w3.org/2000/svg"
 width="512.000000pt" height="512.000000pt" viewBox="0 0 512.000000 512.000000"
 preserveAspectRatio="xMidYMid meet">
<metadata>
Created by potrace 1.16, written by Peter Selinger 2001-2019
</metadata>
<g transform="translate(0.000000,512.000000) scale(0.100000,-0.100000)"
fill="#000000" stroke="none">
<path d="M977 4622 l-417 -417 0 -1502 0 -1503 -27 -6 c-109 -24 -213 -78
-283 -147 -116 -115 -170 -242 -170 -404 0 -62 6 -120 16 -154 43 -145 148
-277 272 -342 139 -72 -25 -67 2000 -67 l1824 0 376 183 c457 221 472 234 472
379 0 77 -28 139 -80 176 -21 15 -191 101 -378 192 l-341 165 -1 393 0 393 96
-52 96 -52 215 215 216 216 -54 100 -53 101 36 88 35 88 107 34 106 35 0 306
0 306 -106 35 -107 34 -35 88 -36 88 53 101 54 100 -216 216 -215 215 -96 -52
-96 -52 0 461 0 460 -1423 0 -1422 0 -418 -418z m3103 -93 c0 -276 -3 -350
-12 -347 -7 2 -29 52 -47 111 l-35 107 -306 0 -306 0 -35 -106 -34 -107 -88
-35 -88 -36 -101 53 -100 54 -215 -215 -216 -216 54 -100 53 -100 -36 -89 -35
-88 -107 -35 -106 -35 0 -305 0 -305 107 -35 107 -35 35 -88 35 -89 -54 -100
-53 -100 216 -215 215 -216 100 53 100 54 89 -35 88 -35 34 -107 35 -107 306
0 306 0 35 107 c18 59 40 109 47 111 9 3 12 -71 12 -347 l0 -351 -1680 0
-1680 0 0 1440 0 1440 400 0 400 0 0 400 0 400 1280 0 1280 0 0 -351z m-2720
-34 l0 -255 -257 0 -258 0 255 255 c140 140 256 255 257 255 2 0 3 -115 3
-255z m2527 -351 l30 -96 84 -27 c46 -15 116 -44 154 -64 l70 -37 85 45 85 44
127 -126 127 -126 -44 -87 -44 -88 34 -63 c18 -35 47 -104 64 -153 l29 -89 96
-30 96 -31 0 -176 0 -176 -96 -31 -96 -30 -29 -89 c-17 -49 -46 -118 -65 -154
l-34 -64 45 -86 44 -86 -127 -127 -127 -126 -85 44 -85 45 -65 -35 c-36 -18
-106 -47 -155 -64 l-88 -29 -30 -96 -31 -96 -176 0 -177 0 -29 96 -29 95 -90
30 c-49 17 -119 46 -155 64 l-65 35 -85 -45 -85 -44 -127 126 -127 127 44 86
45 86 -34 64 c-19 36 -48 105 -65 155 l-30 90 -95 29 -96 29 0 177 0 177 96
29 95 29 30 90 c17 49 46 119 64 155 l35 65 -45 85 -44 85 126 127 127 127 86
-44 86 -45 64 34 c36 19 105 48 154 65 l89 29 30 96 31 96 176 0 176 0 31 -96z
m-3007 -3504 l0 -400 -107 0 c-139 0 -234 15 -300 45 -70 32 -157 120 -191
192 -24 52 -27 70 -27 163 0 93 3 111 27 163 34 73 121 160 192 193 67 31 138
41 289 43 l117 1 0 -400z m3200 240 l0 -160 -1520 0 -1520 0 0 160 0 160 1520
0 1520 0 0 -160z m480 -53 l305 -152 0 -35 0 -35 -305 -152 c-168 -84 -308
-152 -312 -153 -5 0 -8 153 -8 340 0 187 3 340 8 340 4 -1 144 -69 312 -153z
m-480 -427 l0 -160 -1520 0 -1520 0 0 160 0 160 1520 0 1520 0 0 -160z"/>
<path d="M3120 4640 l0 -80 80 0 80 0 0 80 0 80 -80 0 -80 0 0 -80z"/>
<path d="M3440 4640 l0 -80 80 0 80 0 0 80 0 80 -80 0 -80 0 0 -80z"/>
<path d="M3760 4640 l0 -80 80 0 80 0 0 80 0 80 -80 0 -80 0 0 -80z"/>
<path d="M1015 3901 c-87 -40 -135 -120 -135 -223 0 -74 23 -129 71 -175 67
-63 65 -63 534 -63 347 0 432 -3 460 -14 37 -16 52 -48 41 -92 -12 -47 -51
-54 -303 -54 -255 0 -277 -5 -340 -71 -44 -47 -63 -98 -63 -171 0 -74 23 -129
71 -175 54 -51 95 -63 214 -63 155 0 201 -27 181 -106 -13 -49 -46 -54 -381
-54 -337 0 -349 -2 -414 -63 -49 -47 -71 -100 -71 -177 0 -77 22 -130 71 -177
69 -65 48 -63 699 -63 l590 0 0 80 0 80 -555 0 c-606 0 -617 1 -631 54 -11 44
4 76 41 92 27 11 97 14 340 14 337 0 349 2 414 63 48 46 71 101 71 175 0 73
-19 124 -63 171 -54 57 -97 71 -220 71 -157 0 -203 26 -183 106 12 47 51 54
303 54 255 0 277 5 340 71 44 47 63 97 63 169 0 101 -49 181 -135 221 -37 17
-72 19 -468 19 -348 0 -434 3 -462 14 -37 16 -52 48 -41 92 14 53 22 54 671
54 l595 0 0 80 0 80 -632 0 c-595 0 -635 -2 -673 -19z"/>
<path d="M880 1760 l0 -80 80 0 80 0 0 80 0 80 -80 0 -80 0 0 -80z"/>
<path d="M1200 1760 l0 -80 560 0 560 0 0 80 0 80 -560 0 -560 0 0 -80z"/>
<path d="M880 1440 l0 -80 720 0 720 0 0 80 0 80 -720 0 -720 0 0 -80z"/>
<path d="M2480 1440 l0 -80 80 0 80 0 0 80 0 80 -80 0 -80 0 0 -80z"/>
<path d="M2800 1440 l0 -80 80 0 80 0 0 80 0 80 -80 0 -80 0 0 -80z"/>
<path d="M3120 1440 l0 -80 80 0 80 0 0 80 0 80 -80 0 -80 0 0 -80z"/>
<path d="M3465 3899 c-310 -76 -570 -338 -645 -649 -28 -117 -28 -303 0 -420
79 -328 349 -589 682 -656 100 -20 321 -14 413 11 98 26 253 109 334 177 139
117 249 295 291 468 28 117 28 303 0 420 -75 314 -336 575 -650 650 -115 27
-311 27 -425 -1z m318 -153 c137 -16 303 -102 409 -214 80 -85 128 -163 165
-267 26 -74 28 -91 28 -225 0 -137 -2 -150 -31 -231 -38 -108 -105 -209 -189
-287 -381 -357 -986 -202 -1163 297 -25 69 -27 89 -27 221 0 134 2 151 28 225
93 262 334 458 597 484 74 7 88 7 183 -3z"/>
<path d="M3543 3421 c-105 -39 -180 -107 -231 -211 -25 -50 -27 -65 -27 -170
0 -107 2 -119 29 -175 38 -77 114 -153 191 -191 56 -27 68 -29 175 -29 107 0
119 2 175 29 77 38 153 114 191 191 27 56 29 68 29 175 0 107 -2 119 -29 175
-38 77 -114 153 -191 190 -52 26 -73 30 -160 33 -79 2 -111 -2 -152 -17z m225
-167 c153 -63 191 -267 71 -381 -147 -139 -389 -36 -389 167 0 90 51 169 135
213 39 21 135 21 183 1z"/>
</g>
</svg>
