<?xml version="1.0" standalone="no"?>
<!DOCTYPE svg PUBLIC "-//W3C//DTD SVG 20010904//EN"
 "http://www.w3.org/TR/2001/REC-SVG-20010904/DTD/svg10.dtd">
<svg version="1.0" xmlns="http://www.w3.org/2000/svg"
 width="512.000000pt" height="512.000000pt" viewBox="0 0 512.000000 512.000000"
 preserveAspectRatio="xMidYMid meet">
<metadata>
Created by potrace 1.16, written by Peter Selinger 2001-2019
</metadata>
<g transform="translate(0.000000,512.000000) scale(0.100000,-0.100000)"
fill="#000000" stroke="none">
<path d="M228 5096 c-72 -30 -128 -74 -167 -132 -66 -100 -61 94 -59 -2419 l3
-2280 27 -57 c34 -73 103 -142 176 -176 l57 -27 2295 0 2295 0 57 27 c73 34
142 103 176 176 l27 57 0 2295 0 2295 -27 57 c-34 73 -103 142 -176 176 l-57
27 -2285 2 -2285 3 -57 -24z m2675 -996 c693 -135 1203 -725 1234 -1430 20
-450 -147 -858 -480 -1176 -448 -428 -1118 -539 -1678 -277 l-96 45 -399 -105
c-219 -57 -400 -103 -402 -102 -2 1 45 177 103 390 l107 388 -51 106 c-103
219 -140 372 -148 616 -4 143 -2 189 15 290 118 688 668 1203 1367 1279 89 9
323 -3 428 -24z"/>
<path d="M2442 3870 c-484 -68 -887 -405 -1042 -868 -41 -125 -60 -247 -60
-398 0 -253 57 -461 186 -675 l33 -55 -64 -234 c-35 -129 -63 -235 -61 -237 1
-1 110 26 241 60 l239 63 93 -48 c203 -107 376 -150 608 -150 165 0 293 20
427 68 379 136 671 440 792 824 44 139 59 256 53 430 -7 204 -41 342 -126 515
-176 354 -485 598 -871 686 -98 23 -348 33 -448 19z m-238 -592 c26 -39 146
-337 146 -360 0 -13 -27 -59 -60 -103 -36 -48 -60 -90 -60 -105 0 -62 177
-274 304 -365 77 -54 214 -124 259 -132 31 -5 37 0 83 53 28 33 65 78 83 102
21 26 41 42 54 42 12 0 99 -38 193 -84 122 -59 174 -90 179 -105 7 -24 -8
-115 -28 -163 -35 -84 -180 -174 -299 -185 -83 -7 -163 8 -288 54 -126 47
-236 102 -329 166 -94 64 -317 284 -397 392 -148 201 -199 321 -199 470 1 105
22 166 89 254 58 77 85 91 178 91 69 0 79 -2 92 -22z"/>
</g>
</svg>
