<?xml version="1.0" standalone="no"?>
<!DOCTYPE svg PUBLIC "-//W3C//DTD SVG 20010904//EN"
 "http://www.w3.org/TR/2001/REC-SVG-20010904/DTD/svg10.dtd">
<svg version="1.0" xmlns="http://www.w3.org/2000/svg"
 width="512.000000pt" height="512.000000pt" viewBox="0 0 512.000000 512.000000"
 preserveAspectRatio="xMidYMid meet">
<metadata>
Created by potrace 1.16, written by Peter Selinger 2001-2019
</metadata>
<g transform="translate(0.000000,512.000000) scale(0.100000,-0.100000)"
fill="#000000" stroke="none">
<path d="M1585 5113 c-624 -81 -1147 -508 -1345 -1100 -64 -192 -74 -265 -74
-518 0 -259 12 -341 80 -536 84 -242 201 -427 389 -614 175 -176 338 -285 550
-368 88 -35 240 -78 321 -92 l42 -6 8 73 c5 40 8 77 9 82 0 5 -29 15 -65 22
-280 57 -531 193 -740 403 -216 216 -349 460 -412 754 -31 146 -31 418 0 564
126 588 566 1028 1155 1155 148 32 417 31 567 -1 589 -126 1026 -561 1155
-1151 10 -43 19 -144 22 -240 4 -138 2 -185 -15 -285 -31 -181 -93 -351 -186
-511 l-36 -62 63 -41 c35 -22 68 -41 73 -41 6 0 29 33 52 73 235 411 284 892
136 1336 -188 565 -683 991 -1271 1091 -87 15 -156 20 -281 19 -92 -1 -180 -4
-197 -6z"/>
<path d="M1702 4738 l3 -83 83 -3 82 -3 0 86 0 85 -85 0 -86 0 3 -82z"/>
<path d="M1551 3973 c0 -296 4 -547 9 -558 7 -17 -32 -60 -263 -292 l-272
-273 55 -55 c30 -30 59 -55 65 -55 5 0 129 119 275 265 l265 265 55 -12 c79
-16 156 8 215 67 75 75 75 74 75 667 l0 518 -240 0 -240 0 1 -537z m309 63 l0
-304 -75 -4 -75 -3 0 308 0 307 75 0 75 0 0 -304z m-25 -491 c30 -30 32 -64 4
-99 -54 -68 -155 5 -114 83 24 48 72 55 110 16z"/>
<path d="M847 4432 l-57 -58 60 -59 60 -59 55 54 c30 30 55 59 55 65 0 10
-101 115 -111 115 -2 0 -30 -26 -62 -58z"/>
<path d="M2605 4430 l-60 -60 58 -57 57 -58 60 60 60 60 -58 58 -58 57 -59
-60z"/>
<path d="M460 3495 l0 -85 85 0 85 0 0 85 0 85 -85 0 -85 0 0 -85z"/>
<path d="M2950 3495 l0 -85 80 0 80 0 0 85 0 85 -80 0 -80 0 0 -85z"/>
<path d="M847 2672 l-57 -58 58 -57 58 -57 59 60 59 60 -54 55 c-30 30 -57 55
-60 55 -3 0 -31 -26 -63 -58z"/>
<path d="M1700 1245 l0 -1245 1630 0 1630 0 0 1245 0 1245 -1630 0 -1630 0 0
-1245z m3100 925 l0 -150 -80 0 -80 0 0 -80 0 -80 80 0 80 0 0 -850 0 -850
-1465 0 -1465 0 0 850 0 850 1160 0 1160 0 0 80 0 80 -1160 0 -1160 0 0 150 0
150 1465 0 1465 0 0 -150z"/>
<path d="M4330 1940 l0 -80 85 0 85 0 0 80 0 80 -85 0 -85 0 0 -80z"/>
<path d="M2010 1015 l0 -705 1325 0 1325 0 0 705 0 705 -1325 0 -1325 0 0
-705z m620 310 l0 -225 -230 0 -230 0 0 225 0 225 230 0 230 0 0 -225z m620 0
l0 -225 -225 0 -225 0 0 225 0 225 225 0 225 0 0 -225z m620 0 l0 -225 -225 0
-225 0 0 225 0 225 225 0 225 0 0 -225z m630 0 l0 -225 -230 0 -230 0 0 225 0
225 230 0 230 0 0 -225z m-1870 -625 l0 -230 -230 0 -230 0 0 230 0 230 230 0
230 0 0 -230z m620 0 l0 -230 -225 0 -225 0 0 230 0 230 225 0 225 0 0 -230z
m620 0 l0 -230 -225 0 -225 0 0 230 0 230 225 0 225 0 0 -230z m630 0 l0 -230
-230 0 -230 0 0 230 0 230 230 0 230 0 0 -230z"/>
</g>
</svg>
