<svg height="512" width="512" xmlns="http://www.w3.org/2000/svg"><path d="M168.3 62.594c-68.566 0-124.35 55.733-124.35 124.239S99.733 311.072 168.3 311.072s124.35-55.733 124.35-124.239S236.866 62.594 168.3 62.594zm0 228.478c-57.539 0-104.35-46.761-104.35-104.239S110.761 82.594 168.3 82.594s104.35 46.761 104.35 104.239-46.812 104.239-104.35 104.239z"/><path d="M507.946 229.714l-83.646-61.86v-13.842c0-5.523-4.477-10-10-10s-10 4.477-10 10v13.842l-72.176 53.378a167.17 167.17 0 003.561-34.399c0-92.212-75.088-167.231-167.384-167.231S.916 94.621.916 186.833c0 63.556 35.671 118.944 88.061 147.231H10c-5.523 0-10 4.477-10 10v138.334c0 5.523 4.477 10 10 10h492c5.523 0 10-4.477 10-10V237.754a10 10 0 00-4.054-8.04zm-103.635 10.088c.245 5.305 4.623 9.531 9.989 9.531s9.744-4.226 9.989-9.531a12.369 12.369 0 012.486 7.451c0 6.866-5.596 12.453-12.475 12.453s-12.475-5.586-12.475-12.453c0-2.792.926-5.372 2.486-7.451zM20 400.176h296.6v26.111H20zm296.6-66.112h-68.976c29.35-15.848 53.453-40.201 68.976-69.731zM20.916 186.833c0-81.184 66.116-147.231 147.384-147.231s147.384 66.048 147.384 147.231S249.568 334.064 168.3 334.064 20.916 268.017 20.916 186.833zM20 354.064h296.6v26.111H20zm0 92.223h296.6v26.111H20zm472 26.111H336.6V242.796l67.7-50.067v23.645c-13.029 4.224-22.475 16.469-22.475 30.879 0 17.895 14.568 32.453 32.475 32.453s32.475-14.558 32.475-32.453c0-14.409-9.446-26.655-22.475-30.879v-23.645l67.7 50.067z"/><path d="M424.414 378.75l15.089-35.849c2.143-5.09-.247-10.954-5.337-13.096s-10.954.248-13.096 5.337l-4.541 10.788c-2.322-11.615-11.816-20.339-23.142-20.339-13.06 0-23.685 11.599-23.685 25.856s10.625 25.856 23.685 25.856c4.066 0 7.896-1.125 11.243-3.104l-14.531 34.525c-2.143 5.09.247 10.954 5.337 13.096a9.975 9.975 0 003.875.786c3.903 0 7.612-2.3 9.221-6.123l3.652-8.677c2.501 11.348 11.878 19.807 23.03 19.807 13.06 0 23.685-11.599 23.685-25.856s-10.625-25.856-23.685-25.856c-3.888.001-7.56 1.029-10.8 2.849zm-31.028-21.445c-1.739 0-3.685-2.504-3.685-5.856s1.945-5.856 3.685-5.856 3.685 2.504 3.685 5.856c0 3.351-1.946 5.856-3.685 5.856zm45.512 44.453c0 3.352-1.945 5.856-3.685 5.856s-3.685-2.504-3.685-5.856 1.945-5.856 3.685-5.856 3.685 2.505 3.685 5.856zM179.625 178.476c-.858-.304-1.689-.599-2.491-.887V156.25c1.301.697 2.241 1.509 2.786 2.285 3.17 4.522 9.407 5.618 13.929 2.447s5.618-9.407 2.447-13.929c-3.802-5.422-10.486-10.01-19.162-11.831v-.035c0-5.523-4.477-10-10-10s-10 4.477-10 10v.723a54.6 54.6 0 00-2.276.634c-10.807 3.258-18.964 13.736-19.835 25.481-.865 11.661 5.309 21.78 16.515 27.068 1.29.609 3.2 1.415 5.597 2.366v26.586c-2.746-1.139-5.144-2.713-6.778-4.745-3.463-4.302-9.758-4.983-14.061-1.521-4.302 3.463-4.983 9.758-1.521 14.061 5.778 7.179 14.106 11.217 22.371 13.115.25 5.3 4.626 9.521 9.988 9.521 5.114 0 9.331-3.839 9.927-8.793 14.714-2.508 25.056-12.223 26.741-25.479 1.946-15.311-7.996-30.004-24.177-35.728zm-24.658-14.97c.143-1.934.967-3.847 2.167-5.32v10.91c-1.621-1.499-2.333-3.348-2.167-5.59zm28.994 48.179c-.438 3.444-2.854 6.018-6.828 7.429v-19.777c5.313 3.359 7.327 8.425 6.828 12.348z"/></svg>