<?xml version="1.0" standalone="no"?>
<!DOCTYPE svg PUBLIC "-//W3C//DTD SVG 20010904//EN"
 "http://www.w3.org/TR/2001/REC-SVG-20010904/DTD/svg10.dtd">
<svg version="1.0" xmlns="http://www.w3.org/2000/svg"
 width="128.000000pt" height="128.000000pt" viewBox="0 0 128.000000 128.000000"
 preserveAspectRatio="xMidYMid meet">
<metadata>
Created by potrace 1.16, written by Peter Selinger 2001-2019
</metadata>
<g transform="translate(0.000000,128.000000) scale(0.100000,-0.100000)"
fill="#000000" stroke="none">
<path d="M454 1172 c-135 -47 -244 -140 -308 -261 -50 -97 -66 -161 -66 -271
0 -158 54 -290 162 -398 108 -108 240 -162 398 -162 154 0 288 53 390 153 117
114 170 242 170 409 0 116 -13 153 -47 132 -15 -10 -18 -23 -14 -91 7 -160
-41 -287 -148 -394 -200 -200 -502 -200 -702 0 -200 200 -200 502 0 702 107
107 231 154 388 148 74 -4 87 -2 97 14 21 34 -16 47 -133 47 -90 0 -118 -5
-187 -28z"/>
<path d="M1017 1194 c-4 -4 -7 -33 -7 -65 l0 -58 -62 -3 c-60 -3 -63 -4 -63
-28 0 -24 3 -25 62 -28 l62 -3 3 -62 c3 -59 4 -62 28 -62 24 0 25 3 28 62 l3
62 62 3 c59 3 62 4 62 28 0 24 -3 25 -62 28 l-62 3 -3 62 c-3 54 -6 62 -23 65
-12 2 -24 0 -28 -4z"/>
<path d="M506 919 c-22 -18 -26 -28 -26 -75 0 -54 0 -55 28 -52 23 3 27 8 30
38 2 19 9 38 15 42 16 10 159 10 175 0 9 -6 12 -34 10 -103 l-3 -94 -75 -5
c-72 -5 -75 -6 -75 -30 0 -24 3 -25 75 -30 l75 -5 3 -94 c2 -69 -1 -97 -10
-103 -16 -10 -159 -10 -175 0 -6 4 -13 23 -15 42 -3 30 -7 35 -30 38 -28 3
-28 2 -28 -52 0 -47 4 -57 26 -75 23 -18 41 -21 134 -21 93 0 111 3 133 21
l26 20 0 259 0 259 -26 20 c-22 18 -40 21 -133 21 -93 0 -111 -3 -134 -21z"/>
</g>
</svg>
