<?xml version="1.0" standalone="no"?>
<!DOCTYPE svg PUBLIC "-//W3C//DTD SVG 20010904//EN"
 "http://www.w3.org/TR/2001/REC-SVG-20010904/DTD/svg10.dtd">
<svg version="1.0" xmlns="http://www.w3.org/2000/svg"
 width="128.000000pt" height="128.000000pt" viewBox="0 0 128.000000 128.000000"
 preserveAspectRatio="xMidYMid meet">
<metadata>
Created by potrace 1.16, written by Peter Selinger 2001-2019
</metadata>
<g transform="translate(0.000000,128.000000) scale(0.100000,-0.100000)"
fill="#000000" stroke="none">
<path d="M207 873 c-4 -3 -7 -18 -7 -32 0 -37 403 -441 440 -441 19 0 73 48
233 208 187 187 208 212 205 238 -2 24 -8 30 -32 32 -26 3 -49 -16 -218 -185
l-188 -188 -188 188 c-146 146 -193 187 -213 187 -14 0 -29 -3 -32 -7z"/>
</g>
</svg>
