<?xml version="1.0" standalone="no"?>
<!DOCTYPE svg PUBLIC "-//W3C//DTD SVG 20010904//EN"
 "http://www.w3.org/TR/2001/REC-SVG-20010904/DTD/svg10.dtd">
<svg version="1.0" xmlns="http://www.w3.org/2000/svg"
 width="512.000000pt" height="512.000000pt" viewBox="0 0 512.000000 512.000000"
 preserveAspectRatio="xMidYMid meet">
<metadata>
Created by potrace 1.16, written by Peter Selinger 2001-2019
</metadata>
<g transform="translate(0.000000,512.000000) scale(0.100000,-0.100000)"
fill="#000000" stroke="none">
<path d="M100 4220 c-20 -20 -20 -33 -20 -1660 0 -1627 0 -1640 20 -1660 20
-20 33 -20 2460 -20 2427 0 2440 0 2460 20 20 20 20 33 20 1660 0 1627 0 1640
-20 1660 -20 20 -33 20 -2460 20 -2427 0 -2440 0 -2460 -20z m4626 -147 c-4
-5 -281 -245 -614 -534 l-607 -526 -38 65 c-153 262 -402 443 -692 503 -121
25 -309 25 -431 0 -296 -61 -548 -251 -709 -534 l-20 -35 -575 500 c-316 275
-593 515 -615 534 l-40 34 2174 0 c1196 0 2171 -3 2167 -7z m-3816 -677 c349
-302 636 -550 638 -552 2 -1 -4 -39 -13 -85 -12 -60 -15 -126 -13 -230 l3
-147 -590 -562 c-325 -309 -614 -585 -643 -613 l-52 -51 0 1408 c0 1337 1
1408 17 1395 10 -8 304 -261 653 -563z m3968 -1530 l-3 -705 -640 611 -640
610 3 146 c2 104 -1 171 -13 229 l-16 83 33 29 c18 16 312 270 653 566 l620
537 3 -700 c1 -385 1 -1018 0 -1406z m-2084 1535 c234 -64 439 -235 547 -456
65 -133 89 -238 89 -385 0 -147 -24 -252 -89 -385 -87 -178 -218 -309 -396
-396 -133 -65 -238 -89 -385 -89 -147 0 -252 24 -385 89 -529 259 -651 958
-241 1389 97 102 266 201 406 237 139 37 312 35 454 -4z m-1190 -1260 c50
-141 222 -347 371 -446 98 -65 183 -105 302 -142 83 -25 100 -27 283 -27 183
0 200 2 283 27 48 15 117 41 154 57 215 98 417 300 513 516 l30 66 53 -48 c28
-27 301 -286 604 -576 l553 -528 -2190 0 -2190 0 602 575 c331 316 605 575
608 575 3 0 14 -22 24 -49z"/>
<path d="M2372 3260 c-245 -65 -449 -270 -512 -516 -14 -53 -20 -111 -20 -184
0 -208 65 -365 210 -511 69 -69 102 -94 177 -131 126 -64 213 -81 369 -76 72
2 129 9 135 15 8 8 6 32 -7 88 l-18 77 -45 -7 c-227 -34 -436 55 -558 238 -70
104 -88 167 -88 307 0 141 18 203 88 308 78 116 205 203 338 232 80 18 229 8
304 -18 129 -47 250 -156 311 -278 41 -84 54 -151 61 -314 5 -128 3 -161 -10
-192 -17 -40 -48 -55 -93 -44 -49 13 -54 48 -54 351 l0 275 -75 0 c-63 0 -82
4 -114 24 -70 44 -132 59 -234 54 -77 -3 -103 -9 -153 -33 -76 -37 -152 -114
-190 -190 -27 -56 -29 -68 -29 -175 0 -107 2 -119 29 -175 38 -76 114 -153
190 -190 50 -24 76 -30 153 -33 102 -5 164 10 233 53 39 24 39 24 45 4 11 -35
77 -101 120 -120 50 -23 152 -25 203 -3 49 20 100 70 123 119 16 35 19 67 19
246 0 172 -3 218 -20 283 -63 248 -268 453 -516 516 -103 27 -270 26 -372 0z
m276 -486 c85 -35 142 -120 142 -214 0 -129 -101 -230 -230 -230 -202 0 -306
242 -167 389 64 67 171 90 255 55z"/>
</g>
</svg>
