<svg xmlns="http://www.w3.org/2000/svg" viewBox="0 0 64 64"><path d="M57.26 55c0 3.859-3.141 7-7 7s-7-3.141-7-7a1 1 0 00-1-1h-33V2h48v6h2V1a1 1 0 00-1-1h-50a1 1 0 00-1 1v53h-5a1 1 0 00-1 1c0 4.963 4.037 9 9 9h40c4.963 0 9-4.037 9-9V28h-2v27zm-47 7c-3.521 0-6.442-2.612-6.929-6h37.985a8.991 8.991 0 003.307 6H10.26z"/><path d="M38.26 11c0-2.757-2.243-5-5-5s-5 2.243-5 5 2.243 5 5 5 5-2.243 5-5zm-8 0c0-1.654 1.346-3 3-3s3 1.346 3 3-1.346 3-3 3-3-1.346-3-3zm-18-4h13v2h-13zm0 4h13v2h-13zm0 4h13v2h-13zm47.707-4.707a.999.999 0 00-1.414 0l-24 24a.996.996 0 00-.293.707v5.586L30.846 44H13.26v2h22v-2h-1.586l2-2h5.586c.266 0 .52-.105.707-.293l18-18c3.698-3.698 3.698-9.716 0-13.414zm-1.414 12L40.846 40h-3.172l20.293-20.293-1.414-1.414L36.26 38.586v-3.172l22.953-22.953c2.238 2.933 2.019 7.153-.66 9.832z"/><path d="M17.26 21h25v2h-25zm-4 4h25v2h-25zm0 4h9v2h-9zm11 0h11v2h-11zm-11 4h19v2h-19zm24 15h15v2h-15z"/></svg>