<svg xmlns="http://www.w3.org/2000/svg" width="259.292" height="259.291"><path d="M149.027 66.505V46.554c0-8.941-4.972-16.973-12.971-20.951a23.488 23.488 0 00-10.439-2.453c-5.053 0-10.061 1.666-14.087 4.711L53.133 71.855c-4.359 2.06-7.95 4.753-10.691 8.073l-33.119 24.96C3.456 109.316-.03 116.33 0 123.68c.027 7.335 3.567 14.331 9.463 18.702l102.22 75.84a23.313 23.313 0 0013.94 4.6c3.633 0 7.274-.87 10.529-2.51 7.95-3.993 12.88-12.01 12.88-20.902v-24.025c24.271 1.988 52.014 12.166 64.228 45.42 3.375 9.17 12.202 15.337 21.972 15.337.828 0 1.682-.054 2.582-.138a23.375 23.375 0 0020.627-20.207c.348-2.654 8.01-65.14-30.247-109.335-19.161-22.117-45.756-35.54-79.167-39.957zm99.422 147.976a13.341 13.341 0 01-11.752 11.499c-.498.054-.99.084-1.471.084a13.338 13.338 0 01-12.508-8.731c-16.754-45.605-59.525-52.409-83.527-52.409h-.234v34.474c0 5.038-2.834 9.638-7.338 11.907a13.325 13.325 0 01-13.939-1.188l-102.215-75.83a13.362 13.362 0 01-5.392-10.658 13.354 13.354 0 015.311-10.698l34.164-25.746c1.771-2.429 4.519-4.786 8.758-6.605l59.285-44.676a13.35 13.35 0 0113.964-1.285 13.324 13.324 0 017.389 11.935v29.015c35.074 2.822 62.492 15.396 81.617 37.485 35.441 40.929 28.206 98.966 27.888 101.427z"/><path d="M125.464 101.63c-7.299-.087-13.178-6.025-13.178-13.33V73.296l-39.397 29.679c-.841.64-1.75 1.162-2.723 1.594a13.461 13.461 0 01-2.282 2.183l-22.209 16.735 66.611 49.423v-20.549a13.332 13.332 0 0111.388-13.192c.64-.09 6.491-.906 15.51-.906 17.282 0 51.647 3.267 78.819 26.295-3.249-11.68-8.695-23.821-17.714-34.186-16.242-18.672-41.42-28.349-74.825-28.742zm13.721 26.557c-8.581 0-14.619.696-16.981 1.015-11.406 1.675-19.996 11.644-19.996 23.173v.516l-39.709-29.456 11.457-8.626a24.9 24.9 0 002.366-2.062 22.66 22.66 0 002.633-1.715l23.752-17.894c2.219 10.472 11.529 18.453 22.629 18.576 30.406.363 53.068 8.86 67.359 25.289.421.492.847.985 1.261 1.496-21.15-8.644-41.873-10.312-54.771-10.312z"/></svg>