<svg xmlns="http://www.w3.org/2000/svg" viewBox="0 0 480 480"><path d="M447.2 416.728A39.575 39.575 0 00456 392v-16c0-22.091-17.909-40-40-40s-40 17.909-40 40v16a39.575 39.575 0 008.8 24.728 39.907 39.907 0 00-24.8 15.52 39.907 39.907 0 00-24.8-15.52A39.575 39.575 0 00344 392v-16c0-22.091-17.909-40-40-40s-40 17.909-40 40v16a39.575 39.575 0 008.8 24.728 39.907 39.907 0 00-24.8 15.52 39.907 39.907 0 00-24.8-15.52A39.575 39.575 0 00232 392v-16c0-22.091-17.909-40-40-40s-40 17.909-40 40v16a39.575 39.575 0 008.8 24.728c-18.971 3.471-32.764 19.986-32.8 39.272v24h16v-24c0-13.255 10.745-24 24-24h48c13.255 0 24 10.745 24 24v24h16v-24c0-13.255 10.745-24 24-24h48c13.255 0 24 10.745 24 24v24h16v-24c0-13.255 10.745-24 24-24h48c13.255 0 24 10.745 24 24v24h16v-24c-.036-19.286-13.829-35.801-32.8-39.272zM216 392c0 13.255-10.745 24-24 24s-24-10.745-24-24v-16c0-13.255 10.745-24 24-24s24 10.745 24 24v16zm112 0c0 13.255-10.745 24-24 24s-24-10.745-24-24v-16c0-13.255 10.745-24 24-24s24 10.745 24 24v16zm112 0c0 13.255-10.745 24-24 24s-24-10.745-24-24v-16c0-13.255 10.745-24 24-24s24 10.745 24 24v16zM194.926 160.558A7.986 7.986 0 00192 160h-32a8.001 8.001 0 00-7.52 5.264l-8.48 23.32-.28-.76A42.4 42.4 0 00104 160h-.208A39.583 39.583 0 00112 136v-16c0-22.091-17.909-40-40-40s-40 17.909-40 40v16a39.583 39.583 0 008.208 24H40c-22.08.026-39.974 17.92-40 40v96a8 8 0 008 8h24v77.6l-14.656 21.96A8 8 0 0024 416h96a8 8 0 006.656-12.44L112 381.6V233.888l2.016 4c8.084 16.157 27.734 22.702 43.891 14.618a32.716 32.716 0 0015.733-17.098l12.992-32.472 12.8-32a8 8 0 00-4.506-10.378zM48 120c0-13.255 10.745-24 24-24s24 10.745 24 24v16c0 13.255-10.745 24-24 24s-24-10.745-24-24v-16zM32 288H16v-16h16v16zm48 112v-96H64v96H38.952l7.704-11.56A8.052 8.052 0 0048 384v-96h48v96a8.052 8.052 0 001.344 4.44l7.704 11.56H80zm78.784-170.496c-3.434 8.567-13.163 12.729-21.73 9.295a16.708 16.708 0 01-8.726-8.031L111.2 196.424A8 8 0 0096 200v72H48v-72a8 8 0 00-16 0v56H16v-56c0-13.255 10.745-24 24-24h24v80h16v-80h24a26.336 26.336 0 0124.68 17.288l7.8 21.448a8 8 0 0015.04 0l2.448-6.736h13.416l-8.6 21.504zm15-37.504h-14l5.816-16h14.584l-6.4 16z"/><path d="M472 48a8 8 0 008-8V8a8 8 0 00-8-8H136a8 8 0 00-8 8v32a8 8 0 008 8h8v96h16V48h288v176H192v16h104v35.36l-52 29.696 7.936 13.888L296 293.784V320h16v-26.216l44 25.16 7.936-13.888L312 275.36V240h168v-16h-16V48h8zM144 32V16h320v16H144z"/><path d="M393.944 88.24l-32-8-3.888 15.52 14.984 3.744-60.72 42.504L277 113.752a8 8 0 00-9.648-.256l-56 40 9.296 13.008 51.08-36.48L307 158.248a7.999 7.999 0 009.6.304l67.4-47.184V128h16V96a8.001 8.001 0 00-6.056-7.76z"/></svg>