<?xml version="1.0" standalone="no"?>
<!DOCTYPE svg PUBLIC "-//W3C//DTD SVG 20010904//EN"
 "http://www.w3.org/TR/2001/REC-SVG-20010904/DTD/svg10.dtd">
<svg version="1.0" xmlns="http://www.w3.org/2000/svg"
 width="512.000000pt" height="512.000000pt" viewBox="0 0 512.000000 512.000000"
 preserveAspectRatio="xMidYMid meet">
<metadata>
Created by potrace 1.16, written by Peter Selinger 2001-2019
</metadata>
<g transform="translate(0.000000,512.000000) scale(0.100000,-0.100000)"
fill="#000000" stroke="none">
<path d="M2974 4246 l-34 -34 0 -456 0 -456 -1250 0 c-1377 0 -1300 4 -1340
-62 -19 -32 -20 -49 -20 -678 0 -629 1 -646 20 -678 40 -66 -37 -62 1340 -62
l1250 0 0 -445 c0 -480 0 -483 52 -519 28 -20 100 -21 136 -2 15 8 392 381
839 828 650 652 812 819 818 845 16 78 42 49 -818 911 -447 447 -824 820 -839
828 -15 8 -48 14 -74 14 -39 0 -51 -5 -80 -34z m863 -2333 l-647 -648 0 353
c0 388 -3 407 -59 436 -27 14 -166 16 -1291 16 l-1260 0 0 490 0 490 1260 0
c1392 0 1301 -4 1334 64 14 29 16 81 16 388 l0 353 647 -648 648 -647 -648
-647z"/>
</g>
</svg>
