<?xml version="1.0" standalone="no"?>
<!DOCTYPE svg PUBLIC "-//W3C//DTD SVG 20010904//EN"
 "http://www.w3.org/TR/2001/REC-SVG-20010904/DTD/svg10.dtd">
<svg version="1.0" xmlns="http://www.w3.org/2000/svg"
 width="512.000000pt" height="512.000000pt" viewBox="0 0 512.000000 512.000000"
 preserveAspectRatio="xMidYMid meet">
<metadata>
Created by potrace 1.16, written by Peter Selinger 2001-2019
</metadata>
<g transform="translate(0.000000,512.000000) scale(0.100000,-0.100000)"
fill="#000000" stroke="none">
<path d="M185 4291 c-76 -35 -139 -104 -161 -176 -10 -29 -15 -59 -12 -66 3
-8 578 -391 1277 -852 l1271 -837 1271 837 c699 461 1274 844 1277 852 3 7 -2
37 -12 66 -22 72 -85 141 -161 176 l-60 29 -2315 0 -2315 0 -60 -29z"/>
<path d="M0 2559 c0 -615 2 -1119 4 -1119 7 0 1701 1072 1715 1085 11 11 4 19
-40 48 -30 19 -420 275 -866 570 l-813 536 0 -1120z"/>
<path d="M4256 3110 c-472 -312 -859 -571 -859 -576 0 -10 1713 -1097 1719
-1091 2 2 3 505 2 1118 l-3 1115 -859 -566z"/>
<path d="M1015 1714 c-550 -348 -1001 -640 -1003 -649 -7 -30 30 -114 69 -159
23 -25 66 -58 101 -75 l61 -31 2317 0 2317 0 61 31 c35 17 78 50 101 75 37 42
71 116 71 154 0 12 -127 98 -387 262 -214 135 -666 421 -1005 636 l-617 390
-240 -158 c-133 -87 -255 -161 -271 -165 -17 -4 -44 -4 -61 0 -17 4 -124 69
-238 144 -113 75 -222 146 -241 158 l-35 20 -1000 -633z"/>
</g>
</svg>
