<svg xmlns="http://www.w3.org/2000/svg" viewBox="0 0 64 64"><path d="M60.7 21.581L32.567 2.177a1 1 0 00-.955-.1L14 9.494V9a1 1 0 00-1-1H9a.993.993 0 00-.93.655L3.707 4.293A1 1 0 002 5v26a1 1 0 001.707.707l4.363-4.362A.993.993 0 009 28h4a1 1 0 001-1v-.461l7.594 3.375a1 1 0 00.877-.032l14.621-7.8 20.959 6.987A3 3 0 0062 26.225V24.05a2.994 2.994 0 00-1.3-2.469zM4 7.414l4 4v13.172l-4 4zM12 26h-2V10h2v16zm48 .225a1 1 0 01-1.316.949L38 20.279V19a3 3 0 00-3-3H22v2h13a1 1 0 011 1v1.4l-14.04 7.488L14 24.35V11.664l17.883-7.53 27.685 19.093a1 1 0 01.432.823zm1.383 5.851a1 1 0 00-1.09.217l-4.362 4.362A1 1 0 0055 36h-4a1 1 0 00-1 1v.461l-7.594-3.375a1 1 0 00-.877.032l-14.621 7.8-20.959-6.989A3 3 0 002 37.775v2.175a2.994 2.994 0 001.3 2.469l28.136 19.4a1 1 0 00.955.1L50 54.506V55a1 1 0 001 1h4a1 1 0 00.931-.655l4.362 4.362A1 1 0 0062 59V33a1 1 0 00-.617-.924zm-29.266 27.79L4.432 40.773A1 1 0 014 39.95v-2.175a1 1 0 011-1 1 1 0 01.319.052L26 43.721V45a3 3 0 003 3h13v-2H29a1 1 0 01-1-1v-1.4l14.04-7.488L50 39.65v12.686zM54 54h-2V38h2zm6 2.586l-4-4V39.414l4-4z"/></svg>