<svg height="512" width="512" xmlns="http://www.w3.org/2000/svg"><path d="M484.297 0H27.703C12.428 0 0 12.428 0 27.703V286.99c0 4.143 3.358 7.5 7.5 7.5s7.5-3.357 7.5-7.5V97.83h482v30.29c0 4.143 3.358 7.5 7.5 7.5s7.5-3.357 7.5-7.5V27.703C512 12.428 499.572 0 484.297 0zM15 82.83V27.703C15 20.698 20.699 15 27.703 15h456.594C491.301 15 497 20.698 497 27.703V82.83zm402.626 129.304H381.26c-4.142 0-7.5 3.357-7.5 7.5s3.358 7.5 7.5 7.5h36.366c4.142 0 7.5-3.357 7.5-7.5s-3.358-7.5-7.5-7.5z"/><path d="M417.626 179.809h-84.854c-4.142 0-7.5 3.357-7.5 7.5s3.358 7.5 7.5 7.5h84.854c4.142 0 7.5-3.357 7.5-7.5s-3.358-7.5-7.5-7.5zM94.374 227.134h36.366c4.142 0 7.5-3.357 7.5-7.5s-3.358-7.5-7.5-7.5H94.374c-4.142 0-7.5 3.357-7.5 7.5s3.358 7.5 7.5 7.5zm0-32.325h84.854c4.142 0 7.5-3.357 7.5-7.5s-3.358-7.5-7.5-7.5H94.374c-4.142 0-7.5 3.357-7.5 7.5s3.358 7.5 7.5 7.5zm330.752-72.151a7.5 7.5 0 00-7.5-7.5H94.374a7.5 7.5 0 00-7.5 7.5v32.325a7.5 7.5 0 007.5 7.5h323.252a7.5 7.5 0 007.5-7.5zm-15 24.825H101.874v-17.325h308.252z"/><circle cx="438.839" cy="48.917" r="12.122"/><circle cx="397.423" cy="48.917" r="12.122"/><circle cx="356.006" cy="48.917" r="12.122"/><path d="M504.5 155.62a7.5 7.5 0 00-7.5 7.5v258.55c0 7.003-5.697 12.7-12.7 12.7h-91.737c14.255-23.826 22.461-51.668 22.461-81.395 0-87.687-71.338-159.024-159.024-159.024S96.976 265.289 96.976 352.976c0 29.726 8.207 57.568 22.461 81.395H27.7c-7.003 0-12.7-5.697-12.7-12.7v-99.68c0-4.143-3.358-7.5-7.5-7.5s-7.5 3.357-7.5 7.5v99.68c0 15.274 12.426 27.7 27.7 27.7h101.912C158.696 487.411 204.527 512 256 512s97.304-24.589 126.387-62.63H484.3c15.274 0 27.7-12.426 27.7-27.7V163.12a7.5 7.5 0 00-7.5-7.5zM382.47 345.476a126.238 126.238 0 00-3.928-24.726 7.5 7.5 0 00-14.505 3.82 111.603 111.603 0 013.663 28.41c0 61.586-50.108 111.689-111.7 111.689S144.3 414.566 144.3 352.98c0-61.592 50.108-111.7 111.7-111.7 39.021 0 74.589 19.905 95.146 53.246a7.5 7.5 0 0010.32 2.447 7.5 7.5 0 002.448-10.32 127.181 127.181 0 00-13.233-17.752l12.275-12.274c21.464 23.803 35.118 54.778 36.875 88.848H382.47zm-252.942 0H112.17c1.756-34.07 15.411-65.045 36.875-88.848l12.268 12.268c-18.347 20.635-30.065 47.284-31.785 76.58zm210.546-87.181a127.248 127.248 0 00-21.386-15.393c-16.856-9.635-35.796-15.235-55.188-16.388v-17.368c34.07 1.756 65.045 15.411 88.849 36.875zM248.5 226.508c-29.295 1.719-55.943 13.435-76.58 31.78l-12.268-12.268c23.803-21.464 54.778-35.119 88.849-36.875v17.363zM256 497c-76.9 0-139.915-60.582-143.83-136.524h17.358C133.421 426.856 188.654 479.67 256 479.67s122.579-52.814 126.472-119.194h17.358C395.915 436.418 332.9 497 256 497z"/><path d="M256 398.004a7.5 7.5 0 00-7.5 7.5v12.122c0 4.143 3.358 7.5 7.5 7.5s7.5-3.357 7.5-7.5v-12.122a7.5 7.5 0 00-7.5-7.5zm56.126-111.761l-44.066 44.066a25.522 25.522 0 00-12.06-3.016c-14.162 0-25.683 11.521-25.683 25.683s11.521 25.683 25.683 25.683 25.683-11.521 25.683-25.683c0-4.357-1.094-8.461-3.016-12.06l44.066-44.065a7.5 7.5 0 00-10.607-10.608zM256 363.658c-5.891 0-10.683-4.792-10.683-10.683s4.792-10.683 10.683-10.683 10.683 4.792 10.683 10.683-4.792 10.683-10.683 10.683zm32.325 34.346a7.5 7.5 0 00-7.5 7.5v12.122c0 4.143 3.358 7.5 7.5 7.5s7.5-3.357 7.5-7.5v-12.122a7.5 7.5 0 00-7.5-7.5zm-64.65 0a7.5 7.5 0 00-7.5 7.5v12.122c0 4.143 3.358 7.5 7.5 7.5s7.5-3.357 7.5-7.5v-12.122a7.5 7.5 0 00-7.5-7.5z"/></svg>