<svg height="557pt" viewBox="-37 -17 557 557.334" width="557pt" xmlns="http://www.w3.org/2000/svg"><path d="M275.145 189.973c0-12.422-10.075-22.5-22.497-22.5-12.425 0-22.5 10.078-22.5 22.5 0 12.425 10.075 22.496 22.5 22.496 12.414-.016 22.485-10.078 22.497-22.496zm-27.497 0c0-2.762 2.235-5 5-5 2.758 0 5 2.238 5 5 0 2.761-2.242 5-5 5-2.765 0-5-2.239-5-5zm168.02-31.513c0-14.327-11.61-25.937-25.934-25.937-14.328 0-25.937 11.61-25.937 25.938 0 14.324 11.61 25.934 25.937 25.934 14.313-.016 25.918-11.622 25.934-25.934zm-34.371 0a8.437 8.437 0 018.437-8.437c4.657 0 8.434 3.778 8.434 8.438 0 4.656-3.777 8.437-8.434 8.437a8.445 8.445 0 01-8.437-8.437zm70.633 106.56a62.889 62.889 0 00-95.086-44.406c-8.016-17.688-26.239-28.473-45.602-27-19.36 1.48-35.734 14.902-40.976 33.597-.164 0-.32.258-.48.258-22.126.14-41.095 15.84-45.364 37.55h-7.129c-15.656 0-28.434 12.153-28.434 27.805v14.73c0 .216.036.43.055.645a146.198 146.198 0 0032.95 89.399l10.843 96.41c1.578 16.203 15.227 28.547 31.508 28.492h141.847c16.247.07 29.88-12.223 31.489-28.387l10.828-96.324a146.451 146.451 0 0032.906-89.16c.04-.356.059-.719.05-1.074v-14.73a27.913 27.913 0 00-8.362-19.833 27.895 27.895 0 00-19.989-7.972zm-62.067-36.184c21.54-.14 40.137 15.05 44.285 36.184h-22.05a27.807 27.807 0 00-28.254 27.805v47.226a1.58 1.58 0 01-.61 1.183 2.258 2.258 0 01-1.578.36 2.107 2.107 0 01-1.562-1.89v-46.876a27.526 27.526 0 00-8.09-19.785 27.498 27.498 0 00-19.813-8.023h-6.605a44.846 44.846 0 0114.621-25h.82s-.011-.497-.02-.73a45.094 45.094 0 0128.856-10.454zm41.727 161.668a129.264 129.264 0 01-63.77 39.273 20.164 20.164 0 00-15.496-7.27H317.95a20.163 20.163 0 00-15.484 7.274 128.258 128.258 0 01-63.797-39.437l-8.313-74.078h132.243v23.437c.039 9.617 7.078 17.77 16.59 19.219.93.125 1.867.187 2.804.187a19.426 19.426 0 0012.66-4.668 19.204 19.204 0 006.692-14.39v-23.785h38.586zm-76.559 52.004a2.54 2.54 0 01-.812 1.828 2.541 2.541 0 01-1.89.668h-34.372a2.504 2.504 0 01-2.336-3.805 2.496 2.496 0 012.336-1.191h34.371a2.541 2.541 0 011.89.668c.509.472.805 1.133.813 1.832zM269.79 244.949a28.424 28.424 0 0116.563 5.102c3.972 2.707 9.39 1.719 12.152-2.223a8.797 8.797 0 00-2.055-12.183 46.254 46.254 0 00-8.969-4.954c3.989-12.187 15.575-20.254 28.391-19.754 12.813.5 23.738 9.442 26.77 21.903a61.914 61.914 0 00-14.832 32.18h-85.332a27.798 27.798 0 0127.308-20.07zm-63.43 47.875c0-6.004 4.926-10.304 10.93-10.304h13.07c.625 0 1.266.218 1.93.218.664 0 1.313-.218 1.93-.218h117.97a10.015 10.015 0 0110.406 10.305v5.94H206.36zm.52 23.442h5.86l4.562 40.582a131.448 131.448 0 01-10.422-40.582zM420.15 492.27c-.704 7.242-6.805 12.761-14.087 12.73H264.216c-7.32.016-13.438-5.555-14.102-12.84l-8.37-74.465a144.736 144.736 0 0056.405 28.844c1.95 9.363 10.239 16.055 19.801 15.965h34.375c9.563.09 17.86-6.594 19.801-15.961a146.408 146.408 0 0056.402-28.926zm37.39-176.004h5.86a131.679 131.679 0 01-10.442 40.77zm6.3-23.442v5.942h-62.495v-5.942c0-6.004 4.746-10.304 10.754-10.304h40.886c6.012 0 10.856 4.3 10.856 10.304zm0 0"/><path d="M342.598 337.46a8.75 8.75 0 00-8.75 8.75v28.747a8.75 8.75 0 0017.5 0v-28.746c0-4.832-3.922-8.75-8.75-8.75zm46.246 37.497c-4.832 0-8.75 3.922-8.75 8.75v21.25c0 4.832 3.918 8.746 8.75 8.746 4.828 0 8.75-3.914 8.75-8.746v-21.25c0-4.828-3.922-8.75-8.75-8.75zM7.578 522.5h.059l212.484-1.445a8.76 8.76 0 006.719-3.207 8.747 8.747 0 001.805-7.22l-12.122-61.534a19.79 19.79 0 00-19.555-23.71l-26.925.03c-.961-10.777-9.941-19.059-20.758-19.156h-.16l-26.512.562V8.75a8.75 8.75 0 00-17.5 0v398.207l-28.527.219c-10.848.09-19.813 8.48-20.613 19.297l-26.926.21a19.645 19.645 0 00-15.043 7.02 19.657 19.657 0 00-4.3 16.04l-10.747 62.566a8.729 8.729 0 001.938 7.105 8.704 8.704 0 006.683 3.086zm188.781-18.762v-15.406c0-4.828-3.922-8.75-8.75-8.75-4.832 0-8.75 3.922-8.75 8.75v15.523l-18.75.137v-15.66c0-4.828-3.918-8.75-8.746-8.75a8.75 8.75 0 00-8.75 8.75v15.781l-20 .137v-15.918c0-4.828-3.922-8.75-8.75-8.75-4.832 0-8.75 3.922-8.75 8.75v16.035l-19.996.137v-16.172c0-4.828-3.922-8.75-8.75-8.75-4.832 0-8.75 3.922-8.75 8.75v16.293l-18.746.137v-16.426c0-4.832-3.922-8.746-8.75-8.746a8.745 8.745 0 00-8.75 8.746v16.539l-13.203.094 6.64-39.25a18.74 18.74 0 004.391.531h.156l167.922-1.29a20.035 20.035 0 004.426-.546l7.5 39.23zM29.184 444.18l35.609-.274c4.832-.039 8.719-3.984 8.68-8.816l-.055-7.05a3.321 3.321 0 01.96-2.372 3.358 3.358 0 012.36-1.18l72.52-.734h.027a3.49 3.49 0 013.34 3.5l.055 7.133a8.875 8.875 0 002.613 6.215 8.437 8.437 0 006.203 2.343l35.61-.437h.019c.777 0 1.02.547 1.328.847.332.54.473 1.172.406 1.801a2.32 2.32 0 01-.379 1.625 1.873 1.873 0 01-1.476.68l-167.785 1.293h-.016a2.286 2.286 0 01-2.246-2.277 2.286 2.286 0 012.227-2.297zm0 0"/></svg>