<svg height="512" width="512" xmlns="http://www.w3.org/2000/svg"><path d="M219.925 161.196c35.301 0 64.02-28.72 64.02-64.021 0-8.126-1.504-16.049-4.472-23.548a7.498 7.498 0 00-9.733-4.214 7.499 7.499 0 00-4.214 9.733 48.784 48.784 0 013.419 18.028c0 27.03-21.99 49.021-49.02 49.021s-49.021-21.99-49.021-49.021c0-27.029 21.99-49.02 49.021-49.02 9.394 0 18.518 2.662 26.384 7.698a7.5 7.5 0 008.088-12.632c-10.285-6.585-22.206-10.065-34.472-10.065-35.301 0-64.021 28.719-64.021 64.02s28.72 64.021 64.021 64.021z"/><path d="M211.428 62.173c-6.379 0-11.568 5.189-11.568 11.568v46.87c0 6.379 5.189 11.568 11.568 11.568h16.993c6.379 0 11.568-5.189 11.568-11.568v-46.87c0-6.379-5.189-11.568-11.568-11.568zm13.561 55.007h-10.13V77.173h10.13z"/><path d="M499.201 250.074h-28.584c-3.698 0-6.93-2.452-7.859-5.962-9.035-34.132-29.284-64.905-57.127-86.896v-39.965c0-7.382-5.984-13.454-13.453-13.454-17.201 0-32.994 9.962-40.55 25.183-14.693-4.455-29.944-6.817-45.425-7.032a89.532 89.532 0 003.477-24.772c0-49.491-40.264-89.755-89.755-89.755s-89.756 40.264-89.756 89.755c0 9.67 1.537 18.988 4.38 27.722C56.933 139.704-.282 207.75.001 286.879c.102 28.495 7.615 56.549 21.729 81.127 13.688 23.838 33.312 44.043 56.749 58.432 2.721 1.67 4.41 4.699 4.41 7.906v58.766c0 6.324 5.145 11.47 11.469 11.47h48.436a11.45 11.45 0 0010.561-6.995l16.55-39.056c.137-.321.25-.651.34-.989a9.33 9.33 0 019.002-6.911h66.512c4.143 0 7.5-3.357 7.5-7.5s-3.357-7.5-7.5-7.5h-66.512c-10.802 0-20.317 7.162-23.339 17.487l-15.451 36.464H97.89v-55.235c0-8.384-4.431-16.312-11.562-20.689-44.477-27.305-71.141-74.717-71.326-126.828-.262-72.978 53.349-135.588 125.552-147.77a89.84 89.84 0 004.702 7.874h-11.247c-5.612 0-10.178 4.565-10.178 10.178v19.645c0 5.612 4.565 10.178 10.178 10.178h5.926c4.143 0 7.5-3.357 7.5-7.5s-3.357-7.5-7.5-7.5h-1.104v-10h19.005a90.426 90.426 0 0013.703 10.812 7.499 7.499 0 003.396 14.188h129.568c5.611 0 10.177-4.565 10.177-10.178V157.11c0-5.612-4.565-10.178-10.177-10.178h-9.909a89.812 89.812 0 005.792-10h3.486c14.378 0 28.549 2.031 42.196 6.043l-18.28 47.931a7.501 7.501 0 0014.016 5.346c27.629-72.443 21.101-55.319 22.117-57.989 4.256-11.161 14.862-18.809 26.71-19.425v77.988c0 4.143 3.357 7.5 7.5 7.5s7.5-3.357 7.5-7.5v-19.851c20.521 19.15 35.46 43.901 42.627 70.975 2.669 10.083 11.863 17.124 22.359 17.124h26.377a414.534 414.534 0 01-11.02 92.712l-.194.823h-8.468c-23.704 0-46.671 10.286-63.013 28.223a149.957 149.957 0 01-32.35 26.786c-7.275 4.471-11.619 12.219-11.619 20.727v55.234h-42.567l-15.451-36.464c-3.021-10.325-12.536-17.487-23.338-17.487h-8.217c-4.143 0-7.5 3.357-7.5 7.5s3.357 7.5 7.5 7.5h8.217a9.33 9.33 0 019.001 6.911c.09.338.203.668.34.989l16.55 39.057a11.45 11.45 0 0010.561 6.994h48.436c6.324 0 11.47-5.146 11.47-11.47v-58.765c0-3.255 1.672-6.226 4.473-7.947a164.962 164.962 0 0035.584-29.464c13.506-14.822 32.432-23.324 51.925-23.324h10.211c5.968 0 11.09-4.057 12.457-9.863l.595-2.521a429.603 429.603 0 0011.425-98.386c-.002-7.038-5.743-12.765-12.801-12.765zM219.925 22.421c41.22 0 74.755 33.535 74.755 74.755 0 41.221-33.535 74.756-74.755 74.756-41.221 0-74.756-33.535-74.756-74.756 0-41.22 33.535-74.755 74.756-74.755zm79.755 149.511h-30.129a90.325 90.325 0 0012.463-10h17.665v10z"/></svg>