<?xml version="1.0" standalone="no"?>
<!DOCTYPE svg PUBLIC "-//W3C//DTD SVG 20010904//EN"
 "http://www.w3.org/TR/2001/REC-SVG-20010904/DTD/svg10.dtd">
<svg version="1.0" xmlns="http://www.w3.org/2000/svg"
 width="512.000000pt" height="512.000000pt" viewBox="0 0 512.000000 512.000000"
 preserveAspectRatio="xMidYMid meet">
<metadata>
Created by potrace 1.16, written by Peter Selinger 2001-2019
</metadata>
<g transform="translate(0.000000,512.000000) scale(0.100000,-0.100000)"
fill="#000000" stroke="none">
<path d="M2260 5100 c-411 -70 -741 -240 -1031 -529 -297 -298 -469 -639 -534
-1066 -23 -149 -16 -428 14 -565 113 -511 458 -1155 1050 -1965 256 -350 768
-975 799 -975 15 0 306 343 513 605 769 974 1239 1813 1345 2400 23 127 22
377 -1 520 -91 563 -404 1032 -885 1327 -209 128 -441 211 -706 252 -140 22
-424 20 -564 -4z m565 -714 c297 -77 558 -282 701 -550 195 -368 172 -782 -63
-1139 -90 -136 -269 -291 -428 -370 -241 -119 -566 -140 -821 -53 -424 144
-716 514 -753 953 -48 563 343 1071 904 1177 123 23 333 15 460 -18z"/>
<path d="M2385 4114 c-291 -64 -525 -284 -611 -573 -24 -81 -34 -213 -23 -311
33 -325 252 -588 574 -690 99 -31 282 -39 395 -16 432 88 717 512 635 945 -58
303 -280 546 -577 632 -98 28 -295 35 -393 13z"/>
</g>
</svg>
