<?xml version="1.0" standalone="no"?>
<!DOCTYPE svg PUBLIC "-//W3C//DTD SVG 20010904//EN"
 "http://www.w3.org/TR/2001/REC-SVG-20010904/DTD/svg10.dtd">
<svg version="1.0" xmlns="http://www.w3.org/2000/svg"
 width="128.000000pt" height="128.000000pt" viewBox="0 0 128.000000 128.000000"
 preserveAspectRatio="xMidYMid meet">
<metadata>
Created by potrace 1.16, written by Peter Selinger 2001-2019
</metadata>
<g transform="translate(0.000000,128.000000) scale(0.100000,-0.100000)"
fill="#000000" stroke="none">
<path d="M143 808 c-112 -111 -143 -147 -143 -168 0 -21 31 -57 143 -168 124
-124 146 -142 175 -142 25 0 35 5 42 25 14 37 5 52 -89 148 l-86 87 536 0
c403 0 538 3 547 12 15 15 15 61 0 76 -9 9 -144 12 -547 12 l-536 0 86 88 c94
95 103 110 89 147 -7 20 -17 25 -42 25 -29 0 -51 -18 -175 -142z"/>
</g>
</svg>
