<?xml version="1.0" standalone="no"?>
<!DOCTYPE svg PUBLIC "-//W3C//DTD SVG 20010904//EN"
 "http://www.w3.org/TR/2001/REC-SVG-20010904/DTD/svg10.dtd">
<svg version="1.0" xmlns="http://www.w3.org/2000/svg"
 width="512.000000pt" height="512.000000pt" viewBox="0 0 512.000000 512.000000"
 preserveAspectRatio="xMidYMid meet">
<metadata>
Created by potrace 1.16, written by Peter Selinger 2001-2019
</metadata>
<g transform="translate(0.000000,512.000000) scale(0.100000,-0.100000)"
fill="#000000" stroke="none">
<path d="M4136 3475 c-43 -23 -55 -45 -56 -100 l0 -49 327 -328 328 -328
-2329 0 -2328 0 -34 -34 c-46 -46 -48 -101 -5 -148 l29 -33 2331 -5 2331 -5
-316 -315 c-174 -173 -322 -329 -330 -347 -34 -78 36 -165 121 -149 23 5 131
107 468 444 421 422 437 439 437 475 0 21 -6 50 -14 65 -22 42 -837 849 -869
861 -38 15 -57 14 -91 -4z"/>
</g>
</svg>
