<?xml version="1.0" standalone="no"?>
<!DOCTYPE svg PUBLIC "-//W3C//DTD SVG 20010904//EN"
 "http://www.w3.org/TR/2001/REC-SVG-20010904/DTD/svg10.dtd">
<svg version="1.0" xmlns="http://www.w3.org/2000/svg"
 width="512.000000pt" height="512.000000pt" viewBox="0 0 512.000000 512.000000"
 preserveAspectRatio="xMidYMid meet">
<metadata>
Created by potrace 1.16, written by Peter Selinger 2001-2019
</metadata>
<g transform="translate(0.000000,512.000000) scale(0.100000,-0.100000)"
fill="#000000" stroke="none">
<path d="M780 4175 l0 -55 90 0 90 0 0 55 0 55 -90 0 -90 0 0 -55z"/>
<path d="M1070 4175 l0 -55 466 0 465 0 -3 53 -3 52 -462 3 -463 2 0 -55z"/>
<path d="M332 3990 c-52 -32 -62 -69 -62 -230 l0 -140 -30 0 c-30 0 -30 -1
-30 -55 0 -54 0 -55 30 -55 l30 0 2 -997 c3 -932 4 -1000 21 -1030 33 -61 59
-68 283 -71 l201 -3 7 61 c28 247 189 425 429 474 94 20 152 20 239 1 102 -21
190 -68 268 -141 99 -94 144 -189 166 -346 l6 -48 782 0 781 0 12 75 c39 240
210 414 454 463 270 53 550 -130 624 -408 8 -30 15 -72 15 -93 l0 -39 178 4
c163 3 180 5 213 26 61 37 69 67 69 251 0 130 3 161 14 161 7 0 30 18 50 40
l36 40 0 113 c0 125 -14 163 -70 195 -29 17 -30 19 -30 97 l-1 80 -370 505
c-203 277 -380 515 -392 529 -52 56 -73 59 -472 71 -204 5 -385 10 -402 10
l-33 0 0 196 c0 214 -5 235 -60 268 -26 15 -154 16 -1477 16 -1435 0 -1448 0
-1481 -20z m2905 -93 c4 -5 10 -542 12 -1193 l3 -1184 -630 0 c-704 0 -632 -8
-647 70 -4 19 -25 73 -47 120 -54 113 -167 228 -278 282 -115 56 -186 72 -325
72 -102 -1 -132 -5 -200 -27 -144 -47 -257 -128 -335 -239 -51 -73 -83 -146
-101 -230 l-11 -48 -138 0 c-127 0 -140 2 -150 19 -7 13 -10 342 -10 995 l0
976 530 0 530 0 0 55 0 55 -530 0 -530 0 0 135 c0 117 2 135 18 144 21 13
2826 10 2839 -2z m571 -487 c369 -10 346 -4 417 -103 l46 -62 -213 -5 c-235
-6 -241 -7 -277 -71 -20 -35 -21 -51 -21 -384 0 -385 2 -396 65 -435 31 -19
48 -20 559 -20 l526 0 0 -34 c0 -30 -4 -36 -33 -45 -39 -13 -81 -54 -96 -94
-6 -16 -11 -65 -11 -109 0 -120 36 -184 114 -204 l26 -6 0 -149 c0 -136 -2
-149 -19 -159 -11 -5 -67 -10 -124 -10 l-105 0 -7 38 c-11 62 -60 168 -109
237 -197 275 -584 351 -883 174 -124 -75 -237 -220 -284 -369 -17 -53 -18 -27
-18 883 l-1 937 63 0 c34 -1 207 -5 385 -10z m800 -624 c139 -189 252 -347
252 -350 0 -10 -937 -7 -964 4 l-26 10 0 333 c0 184 3 337 7 340 3 4 113 7
243 7 l236 0 252 -344z m396 -658 c22 -31 22 -141 0 -162 -23 -24 -100 -21
-114 3 -16 32 -13 147 6 165 24 25 90 21 108 -6z"/>
<path d="M910 2881 c0 -307 0 -305 62 -299 l33 3 3 122 3 122 102 3 102 3 3
28 c6 49 -11 57 -114 57 l-94 0 0 75 0 75 103 0 c108 0 127 7 127 45 0 41 -16
45 -177 45 l-153 0 0 -279z"/>
<path d="M1328 3153 c-17 -4 -18 -26 -18 -277 0 -291 1 -296 50 -296 44 0 50
16 50 132 l0 108 33 0 c42 0 78 -19 94 -50 7 -14 22 -62 34 -107 l21 -83 55 0
c53 0 55 1 48 23 -4 12 -18 62 -31 110 -13 49 -33 101 -44 116 l-19 28 30 29
c76 73 53 210 -44 254 -33 15 -63 19 -142 19 -55 -1 -108 -3 -117 -6z m219
-105 c19 -18 23 -31 21 -62 -4 -50 -38 -77 -107 -84 l-51 -5 0 85 c0 47 3 88
8 92 14 15 105 -3 129 -26z"/>
<path d="M1740 2870 l0 -290 158 0 c86 0 163 4 170 9 8 5 12 22 10 42 l-3 34
-112 3 -113 3 0 84 0 85 99 0 c104 0 111 3 111 50 0 30 -32 40 -124 40 l-86 0
0 70 0 69 108 3 107 3 3 28 c6 53 -6 57 -174 57 l-154 0 0 -290z"/>
<path d="M2140 2870 l0 -290 158 0 c86 0 163 4 170 9 8 5 12 22 10 42 l-3 34
-112 3 -113 3 0 84 0 85 99 0 c104 0 111 3 111 50 0 30 -32 40 -124 40 l-86 0
0 70 0 70 98 0 c103 0 122 7 122 45 0 41 -16 45 -177 45 l-153 0 0 -290z"/>
<path d="M490 2235 l0 -55 270 0 270 0 0 55 0 55 -270 0 -270 0 0 -55z"/>
<path d="M1200 2235 l0 -55 830 0 830 0 0 55 0 55 -830 0 -830 0 0 -55z"/>
<path d="M1249 1910 c-221 -34 -397 -210 -430 -432 -37 -249 121 -493 366
-563 84 -25 221 -23 306 4 212 67 359 266 359 486 0 312 -286 552 -601 505z
m152 -110 c87 -16 170 -63 232 -130 219 -236 80 -608 -247 -662 -132 -22 -287
41 -374 151 -129 162 -115 379 32 526 56 56 136 100 206 114 63 12 89 12 151
1z"/>
<path d="M1225 1636 c-200 -94 -194 -375 10 -467 87 -40 221 -13 287 57 93 99
89 275 -8 366 -75 70 -196 88 -289 44z m183 -106 c95 -58 95 -192 0 -250 -93
-56 -218 15 -218 125 0 110 125 181 218 125z"/>
<path d="M3929 1910 c-222 -34 -397 -209 -431 -431 -37 -248 122 -493 367
-565 84 -24 220 -22 306 5 254 80 409 353 344 606 -67 260 -319 425 -586 385z
m151 -110 c115 -22 217 -91 279 -188 152 -240 3 -552 -288 -603 -261 -46 -509
201 -462 460 24 128 107 238 225 296 84 41 158 52 246 35z"/>
<path d="M3920 1647 c-49 -15 -136 -104 -149 -153 -50 -181 65 -344 245 -344
48 0 73 6 115 28 187 98 184 370 -6 458 -55 26 -142 31 -205 11z m168 -117
c125 -76 73 -270 -73 -270 -49 0 -98 29 -126 72 -30 49 -22 128 17 169 16 17
38 35 49 39 36 15 99 11 133 -10z"/>
<path d="M2050 1160 l0 -50 85 0 85 0 0 50 0 50 -85 0 -85 0 0 -50z"/>
<path d="M2330 1160 l0 -50 465 0 465 0 0 50 0 50 -465 0 -465 0 0 -50z"/>
</g>
</svg>
