<?xml version="1.0" standalone="no"?>
<!DOCTYPE svg PUBLIC "-//W3C//DTD SVG 20010904//EN"
 "http://www.w3.org/TR/2001/REC-SVG-20010904/DTD/svg10.dtd">
<svg version="1.0" xmlns="http://www.w3.org/2000/svg"
 width="512.000000pt" height="512.000000pt" viewBox="0 0 512.000000 512.000000"
 preserveAspectRatio="xMidYMid meet">
<metadata>
Created by potrace 1.16, written by Peter Selinger 2001-2019
</metadata>
<g transform="translate(0.000000,512.000000) scale(0.100000,-0.100000)"
fill="#000000" stroke="none">
<path d="M512 5100 c-236 -62 -432 -259 -492 -496 -20 -76 -20 -119 -20 -2043
0 -2187 -5 -2022 70 -2176 66 -137 178 -249 315 -315 154 -75 -11 -70 2175
-70 2186 0 2021 -5 2175 70 179 87 316 254 365 446 20 76 20 119 20 2044 0
1925 0 1968 -20 2044 -61 239 -257 435 -496 496 -76 20 -118 20 -2048 19
-1906 0 -1973 -1 -2044 -19z m3568 -1320 c45 -23 70 -63 70 -112 0 -57 -500
-2251 -519 -2277 -45 -64 -129 -88 -191 -56 -18 10 -202 132 -408 272 -325
220 -376 252 -390 241 -10 -7 -103 -95 -208 -194 -198 -188 -220 -203 -284
-189 -62 14 -77 46 -225 482 l-140 411 -380 104 c-420 114 -435 121 -435 188
0 26 7 45 23 60 28 27 2966 1089 3015 1090 18 0 51 -9 72 -20z"/>
<path d="M2732 2899 c-688 -394 -823 -475 -828 -496 -10 -37 215 -704 236
-701 12 3 20 43 37 183 12 99 25 205 30 235 l8 55 692 565 c594 485 692 569
693 591 0 24 -15 39 -39 39 -3 0 -377 -212 -829 -471z"/>
</g>
</svg>
