<?xml version="1.0" standalone="no"?>
<!DOCTYPE svg PUBLIC "-//W3C//DTD SVG 20010904//EN"
 "http://www.w3.org/TR/2001/REC-SVG-20010904/DTD/svg10.dtd">
<svg version="1.0" xmlns="http://www.w3.org/2000/svg"
 width="512.000000pt" height="512.000000pt" viewBox="0 0 512.000000 512.000000"
 preserveAspectRatio="xMidYMid meet">
<metadata>
Created by potrace 1.16, written by Peter Selinger 2001-2019
</metadata>
<g transform="translate(0.000000,512.000000) scale(0.100000,-0.100000)"
fill="#000000" stroke="none">
<path d="M290 5111 c-109 -34 -205 -117 -253 -219 l-32 -67 0 -2265 0 -2265
32 -67 c40 -85 106 -151 191 -191 l67 -32 2265 0 2265 0 67 32 c85 40 151 106
191 191 l32 67 0 2270 0 2270 -33 63 c-44 84 -108 146 -190 185 l-67 32 -2255
2 c-1240 1 -2266 -2 -2280 -6z m2793 -1244 c341 -105 585 -366 665 -712 14
-57 17 -129 17 -395 0 -304 -2 -331 -23 -415 -30 -120 -116 -290 -192 -383
-120 -144 -303 -260 -488 -309 -92 -25 -112 -26 -408 -31 l-311 -4 -199 -199
c-109 -109 -206 -199 -214 -199 -37 0 -40 18 -40 259 l0 236 -57 30 c-214 111
-390 344 -455 601 -22 84 -23 109 -23 414 0 265 3 338 17 395 78 338 325 608
645 705 120 36 155 38 573 36 l405 -2 88 -27z"/>
<path d="M2572 3498 c-18 -18 -15 -75 4 -82 9 -3 39 -6 68 -6 69 0 194 -32
259 -67 73 -39 178 -146 215 -219 54 -107 66 -164 59 -295 -6 -127 -2 -139 45
-139 40 0 51 29 56 147 7 163 -20 264 -105 395 -110 168 -315 277 -523 278
-38 0 -71 -5 -78 -12z"/>
<path d="M1985 3341 c-16 -10 -67 -56 -111 -102 -110 -114 -124 -167 -85 -322
84 -327 458 -750 816 -922 125 -60 177 -75 265 -75 83 0 116 16 208 105 86 82
112 123 112 178 0 59 -13 79 -142 209 -133 136 -154 148 -229 128 -38 -10 -70
-42 -101 -99 -20 -36 -73 -71 -109 -71 -82 0 -256 133 -336 257 -87 134 -76
211 39 269 63 32 84 74 80 157 -2 34 -214 266 -266 291 -45 21 -104 20 -141
-3z"/>
<path d="M2576 3317 c-12 -9 -17 -23 -14 -47 l3 -35 80 -6 c161 -14 257 -75
325 -209 16 -32 25 -70 29 -133 7 -92 15 -107 57 -107 39 0 47 23 42 124 -3
84 -8 102 -41 169 -63 128 -185 221 -323 246 -77 15 -136 14 -158 -2z"/>
<path d="M2613 3139 c-7 -7 -13 -25 -13 -40 0 -34 14 -45 71 -53 32 -5 59 -17
86 -41 42 -36 57 -65 68 -127 5 -30 11 -39 32 -44 40 -10 58 7 61 59 6 86 -53
179 -141 223 -59 30 -146 42 -164 23z"/>
</g>
</svg>
